<svg width="300" height="129" viewBox="0 0 300 129" fill="none" xmlns="http://www.w3.org/2000/svg">
<mask id="mask0_489_276" style="mask-type:luminance" maskUnits="userSpaceOnUse" x="0" y="0" width="300" height="100">
<path d="M0 0H299.682V99.375H0V0Z" fill="white"/>
</mask>
<g mask="url(#mask0_489_276)">
<path d="M0 0H299.833V99.3749H0V0Z" stroke="#2A4546" stroke-width="7.99572"/>
</g>
<mask id="mask1_489_276" style="mask-type:luminance" maskUnits="userSpaceOnUse" x="118" y="42" width="182" height="4">
<path d="M118.666 42.9896H299.682V45.6563H118.666V42.9896Z" fill="white"/>
</mask>
<g mask="url(#mask1_489_276)">
<path d="M119.691 44.5313L299.306 44.5313" stroke="black" stroke-width="1.00753"/>
</g>
<path d="M119.693 98.8385V0.541807" stroke="black" stroke-width="1.00753"/>
<mask id="mask2_489_276" style="mask-type:luminance" maskUnits="userSpaceOnUse" x="153" y="82" width="17" height="3">
<path d="M153.334 82.9896H169.334V84.9531H153.334V82.9896Z" fill="white"/>
</mask>
<g mask="url(#mask2_489_276)">
<path d="M167.896 84.9584H154.199C153.917 84.9584 153.693 84.7292 153.693 84.4479C153.693 84.1615 153.917 83.9323 154.199 83.9323H167.896C168.178 83.9323 168.407 84.1615 168.407 84.4479C168.407 84.7292 168.178 84.9584 167.896 84.9584Z" fill="black"/>
</g>
<mask id="mask3_489_276" style="mask-type:luminance" maskUnits="userSpaceOnUse" x="149" y="70" width="7" height="15">
<path d="M149.713 70.5938H155.999V84.9531H149.713V70.5938Z" fill="white"/>
</mask>
<g mask="url(#mask3_489_276)">
<path d="M154.187 84.9167C153.968 84.9167 153.765 84.7761 153.698 84.5521L149.802 71.3646C149.724 71.0938 149.875 70.8073 150.146 70.7292C150.416 70.6511 150.698 70.8021 150.781 71.0729L154.677 84.2604C154.755 84.5313 154.599 84.8177 154.333 84.8959C154.281 84.9115 154.234 84.9167 154.187 84.9167Z" fill="black"/>
</g>
<mask id="mask4_489_276" style="mask-type:luminance" maskUnits="userSpaceOnUse" x="166" y="70" width="7" height="15">
<path d="M166.666 70.5938H172.385V84.9531H166.666V70.5938Z" fill="white"/>
</mask>
<g mask="url(#mask4_489_276)">
<path d="M167.91 84.8698C167.858 84.8698 167.812 84.8594 167.765 84.8438C167.494 84.7657 167.338 84.4844 167.421 84.2136L171.317 71.0209C171.395 70.75 171.681 70.599 171.947 70.6771C172.218 70.7552 172.374 71.0417 172.291 71.3125L168.395 84.5C168.332 84.724 168.129 84.8698 167.91 84.8698Z" fill="black"/>
</g>
<path d="M161.334 76.2969C160.777 76.2969 160.193 76.2083 159.626 75.9792C158.917 75.6927 158.595 75.3333 158.303 75.0156C158.032 74.7188 157.798 74.4583 157.204 74.1927C156.615 73.9323 155.089 73.4063 153.641 74.1771C152.829 74.6146 152.339 75.2969 152.079 75.7969C151.943 76.0469 151.636 76.1406 151.386 76.0052C151.141 75.875 151.048 75.5625 151.178 75.3177C151.511 74.6927 152.121 73.8333 153.162 73.2761C155.006 72.2917 156.891 72.9375 157.615 73.2604C158.407 73.6146 158.772 74.0104 159.058 74.3333C159.313 74.6094 159.516 74.8333 160.001 75.0313C161.558 75.6563 163.318 74.9063 163.98 74.625C164.86 74.25 165.397 73.8229 165.865 73.4427C166.454 72.9688 167.011 72.5261 167.98 72.3906C169.037 72.25 170.136 72.5313 171.246 73.2292C171.485 73.3802 171.558 73.6979 171.407 73.9375C171.261 74.1771 170.943 74.25 170.709 74.099C169.803 73.5261 168.928 73.2969 168.115 73.4063C167.423 73.5 167.037 73.8073 166.501 74.2396C166.006 74.6406 165.391 75.1354 164.381 75.5677C163.834 75.7969 162.662 76.2969 161.334 76.2969Z" fill="black"/>
<path d="M162.448 79.8542C162.448 80.0469 162.411 80.2344 162.339 80.4115C162.266 80.5886 162.161 80.7448 162.026 80.8854C161.885 81.0208 161.729 81.125 161.552 81.1979C161.375 81.2708 161.193 81.3125 161 81.3125C160.807 81.3125 160.62 81.2708 160.443 81.1979C160.266 81.125 160.109 81.0208 159.974 80.8854C159.833 80.7448 159.729 80.5886 159.656 80.4115C159.583 80.2344 159.547 80.0469 159.547 79.8542C159.547 79.6615 159.583 79.474 159.656 79.2969C159.729 79.1198 159.833 78.9583 159.974 78.8229C160.109 78.6875 160.266 78.5833 160.443 78.5104C160.62 78.4323 160.807 78.3958 161 78.3958C161.193 78.3958 161.375 78.4323 161.552 78.5104C161.729 78.5833 161.885 78.6875 162.026 78.8229C162.161 78.9583 162.266 79.1198 162.339 79.2969C162.411 79.474 162.448 79.6615 162.448 79.8542Z" fill="black"/>
<mask id="mask5_489_276" style="mask-type:luminance" maskUnits="userSpaceOnUse" x="202" y="70" width="16" height="15">
<path d="M202.682 70.5938H217.796V84.9531H202.682V70.5938Z" fill="white"/>
</mask>
<g mask="url(#mask5_489_276)">
<path d="M216.79 71.5938V83.9531H203.686V71.5938H216.79ZM217.16 70.5938H203.316C202.973 70.5938 202.691 70.875 202.691 71.2188V84.3281C202.691 84.6719 202.973 84.9531 203.316 84.9531H217.16C217.504 84.9531 217.79 84.6719 217.79 84.3281V71.2188C217.79 70.875 217.504 70.5938 217.16 70.5938Z" fill="black"/>
</g>
<mask id="mask6_489_276" style="mask-type:luminance" maskUnits="userSpaceOnUse" x="202" y="70" width="16" height="15">
<path d="M202.682 70.9896H217.333V84.3229H202.682V70.9896Z" fill="white"/>
</mask>
<g mask="url(#mask6_489_276)">
<path d="M210.24 84.2552C206.661 84.2552 203.75 81.3438 203.75 77.7656C203.75 74.1875 206.661 71.2761 210.24 71.2761C213.818 71.2761 216.729 74.1875 216.729 77.7656C216.729 81.3438 213.818 84.2552 210.24 84.2552ZM210.24 72.2761C207.214 72.2761 204.75 74.7396 204.75 77.7656C204.75 80.7917 207.214 83.2552 210.24 83.2552C213.266 83.2552 215.729 80.7917 215.729 77.7656C215.729 74.7396 213.266 72.2761 210.24 72.2761Z" fill="black"/>
</g>
<path d="M211.516 77.7761C211.516 77.9636 211.479 78.1458 211.406 78.3177C211.333 78.4948 211.229 78.6458 211.099 78.7813C210.964 78.9115 210.813 79.0156 210.635 79.0886C210.464 79.1615 210.281 79.1979 210.094 79.1979C209.901 79.1979 209.724 79.1615 209.547 79.0886C209.375 79.0156 209.219 78.9115 209.083 78.7813C208.953 78.6458 208.849 78.4948 208.776 78.3177C208.703 78.1458 208.672 77.9636 208.672 77.7761C208.672 77.5833 208.703 77.4063 208.776 77.2292C208.849 77.0573 208.953 76.9011 209.083 76.7656C209.219 76.6354 209.375 76.5313 209.547 76.4583C209.724 76.3854 209.901 76.349 210.094 76.349C210.281 76.349 210.464 76.3854 210.635 76.4583C210.813 76.5313 210.964 76.6354 211.099 76.7656C211.229 76.9011 211.333 77.0573 211.406 77.2292C211.479 77.4063 211.516 77.5833 211.516 77.7761Z" fill="black"/>
<path d="M243.177 73.7761H243.172L231.745 73.6563C231.458 73.6511 231.234 73.4219 231.234 73.1354C231.24 72.8542 231.469 72.6302 231.75 72.6302H231.755L243.182 72.75C243.464 72.75 243.693 72.9844 243.688 73.2656C243.688 73.5521 243.458 73.7761 243.177 73.7761Z" fill="black"/>
<mask id="mask7_489_276" style="mask-type:luminance" maskUnits="userSpaceOnUse" x="242" y="72" width="4" height="14">
<path d="M242.666 72.3229H245.109V85.6563H242.666V72.3229Z" fill="white"/>
</mask>
<g mask="url(#mask7_489_276)">
<path d="M244.541 84.6511C244.286 84.6511 244.067 84.4583 244.036 84.1979L242.698 73.3386C242.661 73.0521 242.864 72.7969 243.146 72.7604C243.427 72.7292 243.682 72.9271 243.718 73.2083L245.052 84.0729C245.088 84.3542 244.89 84.6094 244.609 84.6458C244.583 84.6511 244.562 84.6511 244.541 84.6511Z" fill="black"/>
</g>
<mask id="mask8_489_276" style="mask-type:luminance" maskUnits="userSpaceOnUse" x="226" y="82" width="20" height="4">
<path d="M226.469 82.9896H245.109V85.6563H226.469V82.9896Z" fill="white"/>
</mask>
<g mask="url(#mask8_489_276)">
<path d="M244.542 84.7083L227.104 84.5886C226.818 84.5886 226.594 84.3542 226.594 84.0729C226.594 83.7865 226.828 83.5573 227.109 83.5625L244.547 83.6823C244.833 83.6823 245.057 83.9167 245.057 84.1979C245.057 84.4844 244.828 84.7083 244.542 84.7083Z" fill="black"/>
</g>
<mask id="mask9_489_276" style="mask-type:luminance" maskUnits="userSpaceOnUse" x="226" y="77" width="6" height="9">
<path d="M226.469 77.6563H232V85.6563H226.469V77.6563Z" fill="white"/>
</mask>
<g mask="url(#mask9_489_276)">
<path d="M227.046 84.4688C227.009 84.4688 226.978 84.4635 226.942 84.4583C226.666 84.401 226.489 84.1302 226.546 83.849C226.749 82.875 227.134 81.9792 227.692 81.1771C228.728 79.6927 230.077 78.9479 231.03 78.5833C231.296 78.4792 231.588 78.6146 231.692 78.8802C231.791 79.1458 231.661 79.4427 231.395 79.5417C230.577 79.8594 229.421 80.4948 228.536 81.7656C228.056 82.4531 227.723 83.224 227.546 84.0625C227.499 84.3021 227.286 84.4688 227.046 84.4688Z" fill="black"/>
</g>
<mask id="mask10_489_276" style="mask-type:luminance" maskUnits="userSpaceOnUse" x="230" y="77" width="16" height="4">
<path d="M230.666 77.6563H245.109V80.3229H230.666V77.6563Z" fill="white"/>
</mask>
<g mask="url(#mask10_489_276)">
<path d="M231.323 79.5781C231.042 79.5781 230.812 79.3438 230.812 79.0625C230.812 78.7813 231.042 78.5469 231.323 78.5469L243.516 78.5417C243.802 78.5417 244.031 78.7709 244.031 79.0521C244.031 79.3386 243.802 79.5677 243.516 79.5677L231.323 79.5781Z" fill="black"/>
</g>
<mask id="mask11_489_276" style="mask-type:luminance" maskUnits="userSpaceOnUse" x="228" y="68" width="16" height="20">
<path d="M228 68.3229H244V87.1927H228V68.3229Z" fill="white"/>
</mask>
<g mask="url(#mask11_489_276)">
<path d="M242.693 87.1823C242.537 87.1823 242.381 87.1146 242.282 86.974L229.162 69.1875C228.995 68.9584 229.042 68.6354 229.271 68.4688C229.501 68.2969 229.818 68.349 229.99 68.5781L243.105 86.3646C243.271 86.5938 243.225 86.9167 242.995 87.0834C242.907 87.1511 242.797 87.1823 242.693 87.1823Z" fill="black"/>
</g>
<mask id="mask12_489_276" style="mask-type:luminance" maskUnits="userSpaceOnUse" x="226" y="68" width="17" height="20">
<path d="M226.666 68.3229H242.666V87.1927H226.666V68.3229Z" fill="white"/>
</mask>
<g mask="url(#mask12_489_276)">
<path d="M228.337 87.1875C228.233 87.1875 228.124 87.1563 228.035 87.0885C227.806 86.9219 227.759 86.599 227.926 86.3698L241.056 68.5885C241.223 68.3594 241.545 68.3125 241.769 68.4792C241.999 68.651 242.045 68.974 241.879 69.2031L228.749 86.9792C228.65 87.1198 228.493 87.1875 228.337 87.1875Z" fill="black"/>
</g>
<mask id="mask13_489_276" style="mask-type:luminance" maskUnits="userSpaceOnUse" x="177" y="68" width="19" height="18">
<path d="M177.521 68.3021H195.402V85.6563H177.521V68.3021Z" fill="white"/>
</mask>
<g mask="url(#mask13_489_276)">
<path d="M186.464 69.5729L190.235 76.5677L194.089 83.7188H178.834L182.688 76.5677L186.464 69.5729ZM186.464 68.3021C186.235 68.3021 186.011 68.4167 185.886 68.6458L181.855 76.1198L177.766 83.7031C177.532 84.1354 177.85 84.6615 178.339 84.6615H194.584C195.079 84.6615 195.391 84.1354 195.157 83.7031L191.068 76.1198L187.037 68.6458C186.912 68.4167 186.688 68.3021 186.464 68.3021Z" fill="black"/>
</g>
<mask id="mask14_489_276" style="mask-type:luminance" maskUnits="userSpaceOnUse" x="177" y="68" width="19" height="20">
<path d="M177.521 68.3021H195.402V87.1927H177.521V68.3021Z" fill="white"/>
</mask>
<g mask="url(#mask14_489_276)">
<path d="M181.256 70.2708L193.376 86.651" stroke="black" stroke-width="0.947752" stroke-miterlimit="10" stroke-linecap="round"/>
<path d="M192.245 70.2813L180.109 86.6562" stroke="black" stroke-width="0.947752" stroke-miterlimit="10" stroke-linecap="round"/>
</g>
<mask id="mask15_489_276" style="mask-type:luminance" maskUnits="userSpaceOnUse" x="256" y="70" width="12" height="3">
<path d="M256 70.5938H268V72.3229H256V70.5938Z" fill="white"/>
</mask>
<g mask="url(#mask15_489_276)">
<path d="M267.266 71.4323C267.266 71.1458 267.245 70.8698 267.204 70.5938H256.355C256.313 70.8698 256.287 71.1458 256.287 71.4323C256.287 71.4844 256.287 71.5417 256.292 71.5938H267.266C267.266 71.5417 267.271 71.4844 267.271 71.4323H267.266Z" fill="black"/>
</g>
<mask id="mask16_489_276" style="mask-type:luminance" maskUnits="userSpaceOnUse" x="254" y="70" width="16" height="15">
<path d="M254.225 70.5938H269.334V84.9531H254.225V70.5938Z" fill="white"/>
</mask>
<g mask="url(#mask16_489_276)">
<path d="M268.704 70.5938H268.215C268.251 70.8698 268.267 71.1511 268.267 71.4323C268.267 71.4844 268.267 71.5417 268.267 71.5938H268.329V83.9531H255.23V71.5938H255.293C255.293 71.5417 255.293 71.4844 255.293 71.4323C255.293 71.1511 255.309 70.8698 255.345 70.5938H254.855C254.512 70.5938 254.23 70.875 254.23 71.2188V84.3281C254.23 84.6719 254.512 84.9531 254.855 84.9531H268.704C269.048 84.9531 269.329 84.6719 269.329 84.3281V71.2188C269.329 70.875 269.048 70.5938 268.704 70.5938Z" fill="black"/>
</g>
<path d="M261.775 76.9271C258.801 76.9271 256.374 74.5469 256.291 71.5938H255.291C255.374 75.099 258.255 77.9219 261.775 77.9219C265.301 77.9219 268.176 75.099 268.265 71.5938H267.265C267.182 74.5469 264.749 76.9271 261.775 76.9271Z" fill="black"/>
<mask id="mask17_489_276" style="mask-type:luminance" maskUnits="userSpaceOnUse" x="266" y="70" width="4" height="3">
<path d="M266.666 70.5938H269.333V72.3229H266.666V70.5938Z" fill="white"/>
</mask>
<g mask="url(#mask17_489_276)">
<path d="M267.266 71.4323C267.266 71.4844 267.266 71.5417 267.266 71.5938H268.266C268.266 71.5417 268.266 71.4844 268.266 71.4323C268.266 71.1511 268.25 70.8698 268.214 70.5938H267.203C267.245 70.8698 267.266 71.1458 267.266 71.4323Z" fill="black"/>
</g>
<mask id="mask18_489_276" style="mask-type:luminance" maskUnits="userSpaceOnUse" x="254" y="70" width="4" height="3">
<path d="M254.666 70.5938H257.333V72.3229H254.666V70.5938Z" fill="white"/>
</mask>
<g mask="url(#mask18_489_276)">
<path d="M255.291 71.5938H256.291C256.286 71.5417 256.286 71.4844 256.286 71.4323C256.286 71.1458 256.307 70.8698 256.348 70.5938H255.343C255.307 70.8698 255.291 71.1511 255.291 71.4323C255.291 71.4844 255.291 71.5417 255.291 71.5938Z" fill="black"/>
</g>
<path d="M38.3229 80.1187C33.3333 80.1187 28.6979 78.8062 24.4063 76.1812C20.125 73.5458 16.7083 69.9625 14.1563 65.4312C11.6146 60.9052 10.3438 55.952 10.3438 50.577C10.3438 45.2177 11.6146 40.275 14.1563 35.7437C16.7083 31.2177 20.125 27.6395 24.4063 25.0145C28.6979 22.3791 33.3333 21.0562 38.3229 21.0562C42.875 21.0562 46.9479 22.077 50.5313 24.1187C54.1146 26.15 57.0573 28.775 59.3646 31.9937C61.6667 35.2177 63.25 38.676 64.1146 42.3687H51.9896C51.2396 39.6604 49.6667 37.3062 47.2813 35.3062C44.8906 33.2958 41.9063 32.2854 38.3229 32.2854C35.3906 32.2854 32.6771 33.0875 30.1771 34.6812C27.6875 36.2802 25.6979 38.4729 24.1979 41.2645C22.7083 44.0562 21.9688 47.1604 21.9688 50.577C21.9688 53.9937 22.7083 57.0979 24.1979 59.8895C25.6979 62.6812 27.6875 64.8843 30.1771 66.4937C32.6771 68.0927 35.3906 68.8895 38.3229 68.8895C41.9063 68.8895 44.8958 67.9052 47.3021 65.9312C49.7188 63.9468 51.4167 61.5979 52.4063 58.8895H64.5313C63.6563 62.5145 62.0625 65.9468 59.7604 69.1812C57.4531 72.4052 54.4688 75.0354 50.8021 77.077C47.1458 79.1031 42.9896 80.1187 38.3229 80.1187Z" fill="#2F8083"/>
<path d="M89.1543 80.1187C84.821 80.1187 81.0345 79.2906 77.8001 77.6395C74.5762 75.9885 72.0553 73.7229 70.2376 70.8479C68.4303 67.9729 67.446 64.7177 67.2793 61.077H78.9043C79.2376 63.6343 80.2689 65.7125 82.0085 67.3062C83.7428 68.9052 86.123 69.702 89.1543 69.702C92.0293 69.702 94.2064 69.1343 95.696 67.9937C97.196 66.8583 97.946 65.4468 97.946 63.7645C97.946 62.3479 97.4564 61.1552 96.4876 60.1812C95.5137 59.2125 94.2897 58.4104 92.821 57.7854C91.3626 57.1604 89.3262 56.4104 86.7168 55.5354C82.9251 54.301 79.821 53.0718 77.4043 51.8479C74.9876 50.6291 72.9095 48.8635 71.1751 46.5562C69.4512 44.2541 68.5918 41.2541 68.5918 37.5562C68.5918 34.4208 69.373 31.6083 70.946 29.1187C72.5137 26.6187 74.8001 24.6552 77.8001 23.2229C80.8105 21.7802 84.3522 21.0562 88.4251 21.0562C92.3418 21.0562 95.8105 21.8687 98.8418 23.4937C101.883 25.1187 104.269 27.3427 106.008 30.1604C107.743 32.9833 108.696 36.1291 108.863 39.5979H97.2168C97.0501 37.2125 96.1803 35.2593 94.6126 33.7437C93.0397 32.2333 90.9772 31.4729 88.4251 31.4729C85.8262 31.4729 83.8053 32.0562 82.3626 33.2229C80.9303 34.3791 80.2168 35.8791 80.2168 37.7229C80.2168 39.1395 80.7012 40.3375 81.6751 41.3062C82.6595 42.2802 83.8678 43.0666 85.3001 43.6604C86.7272 44.2593 88.7793 44.9937 91.446 45.8687C95.1803 47.0666 98.2689 48.2437 100.717 49.4104C103.16 50.577 105.248 52.2854 106.988 54.5354C108.722 56.7854 109.592 59.7229 109.592 63.3479C109.592 66.5562 108.785 69.426 107.175 71.952C105.576 74.4677 103.227 76.4625 100.133 77.9312C97.0501 79.3895 93.3887 80.1187 89.1543 80.1187Z" fill="#2F8083"/>
<path d="M148.647 28.5918C147.548 28.5918 146.527 28.3105 145.585 27.7376C144.637 27.1543 143.882 26.3626 143.314 25.3626C142.757 24.3626 142.48 23.2741 142.48 22.0918C142.48 20.9147 142.757 19.821 143.314 18.821C143.882 17.821 144.637 17.0397 145.585 16.4668C146.527 15.8835 147.548 15.5918 148.647 15.5918C149.647 15.5918 150.543 15.8158 151.335 16.2585C152.126 16.7064 152.772 17.2897 153.272 18.0085C153.783 18.7168 154.137 19.4772 154.335 20.2793H151.668C151.501 19.6855 151.152 19.1647 150.626 18.7168C150.095 18.2741 149.439 18.0501 148.647 18.0501C148.007 18.0501 147.408 18.2324 146.855 18.5918C146.314 18.9408 145.876 19.4251 145.543 20.0501C145.21 20.6647 145.043 21.3418 145.043 22.0918C145.043 22.8418 145.21 23.5293 145.543 24.1543C145.876 24.7689 146.314 25.248 146.855 25.5918C147.408 25.9408 148.007 26.1126 148.647 26.1126C149.439 26.1126 150.095 25.8991 150.626 25.4668C151.168 25.0397 151.543 24.5241 151.751 23.9251H154.418C154.22 24.7168 153.866 25.4772 153.355 26.196C152.855 26.9043 152.199 27.4824 151.397 27.9251C150.59 28.3678 149.673 28.5918 148.647 28.5918Z" fill="#2A4546"/>
<path d="M159.107 18.9876C160.285 18.9876 161.217 19.3522 161.899 20.0709C162.576 20.7793 162.92 21.7272 162.92 22.9043V28.3626H161.087L160.691 27.4668H160.607C159.883 28.2168 159.014 28.5918 158.003 28.5918C157.43 28.5918 156.91 28.472 156.441 28.2376C155.967 28.0032 155.592 27.6751 155.316 27.2584C155.05 26.8418 154.92 26.3782 154.92 25.8626C154.92 25.2532 155.107 24.7168 155.482 24.2584C155.857 23.8001 156.368 23.4459 157.024 23.1959C157.691 22.9459 158.451 22.8209 159.316 22.8209H160.482V22.6543C160.482 22.1855 160.357 21.8157 160.107 21.5501C159.857 21.2897 159.514 21.1543 159.087 21.1543C158.712 21.1543 158.41 21.2584 158.191 21.4668C157.967 21.6647 157.837 21.873 157.795 22.0918H155.357C155.399 21.5501 155.566 21.0449 155.857 20.5709C156.16 20.1022 156.587 19.7168 157.128 19.4251C157.68 19.1334 158.342 18.9876 159.107 18.9876ZM158.587 26.6126C159.139 26.6126 159.592 26.4459 159.941 26.1126C160.3 25.7793 160.482 25.3834 160.482 24.9251V24.4668H159.253C158.587 24.4668 158.097 24.5709 157.795 24.7793C157.503 24.9876 157.357 25.2741 157.357 25.6334C157.357 25.9251 157.462 26.1647 157.67 26.3418C157.878 26.5241 158.18 26.6126 158.587 26.6126Z" fill="#2A4546"/>
<path d="M164.492 28.3626V19.2168H166.305L166.701 20.1126H166.805C166.982 19.8782 167.294 19.6334 167.742 19.3834C168.185 19.123 168.701 18.9876 169.284 18.9876C170.018 18.9876 170.664 19.1543 171.221 19.4876C171.773 19.8209 172.206 20.2897 172.513 20.8834C172.815 21.4824 172.971 22.1751 172.971 22.9668V28.3626H170.534V23.1751C170.534 22.6491 170.357 22.1959 170.013 21.8209C169.68 21.4459 169.253 21.2584 168.742 21.2584C168.211 21.2584 167.773 21.4459 167.43 21.8209C167.096 22.1855 166.93 22.6334 166.93 23.1751V28.3626H164.492Z" fill="#2A4546"/>
<path d="M178.133 18.9876C179.31 18.9876 180.242 19.3522 180.924 20.0709C181.602 20.7793 181.945 21.7272 181.945 22.9043V28.3626H180.112L179.716 27.4668H179.633C178.909 28.2168 178.039 28.5918 177.029 28.5918C176.456 28.5918 175.935 28.472 175.466 28.2376C174.992 28.0032 174.617 27.6751 174.341 27.2584C174.076 26.8418 173.945 26.3782 173.945 25.8626C173.945 25.2532 174.133 24.7168 174.508 24.2584C174.883 23.8001 175.393 23.4459 176.049 23.1959C176.716 22.9459 177.477 22.8209 178.341 22.8209H179.508V22.6543C179.508 22.1855 179.383 21.8157 179.133 21.5501C178.883 21.2897 178.539 21.1543 178.112 21.1543C177.737 21.1543 177.435 21.2584 177.216 21.4668C176.992 21.6647 176.862 21.873 176.82 22.0918H174.383C174.424 21.5501 174.591 21.0449 174.883 20.5709C175.185 20.1022 175.612 19.7168 176.154 19.4251C176.706 19.1334 177.367 18.9876 178.133 18.9876ZM177.612 26.6126C178.164 26.6126 178.617 26.4459 178.966 26.1126C179.326 25.7793 179.508 25.3834 179.508 24.9251V24.4668H178.279C177.612 24.4668 177.122 24.5709 176.82 24.7793C176.529 24.9876 176.383 25.2741 176.383 25.6334C176.383 25.9251 176.487 26.1647 176.695 26.3418C176.904 26.5241 177.206 26.6126 177.612 26.6126Z" fill="#2A4546"/>
<path d="M186.725 28.5918C185.975 28.5918 185.314 28.4564 184.746 28.1959C184.189 27.9199 183.751 27.5501 183.434 27.0918C183.126 26.623 182.96 26.0866 182.934 25.4876H185.329C185.34 25.8366 185.475 26.1126 185.725 26.3209C185.986 26.5293 186.319 26.6334 186.725 26.6334C187.1 26.6334 187.392 26.5605 187.6 26.4043C187.809 26.2376 187.913 26.0397 187.913 25.8001C187.913 25.5084 187.767 25.2793 187.475 25.1126C187.194 24.9355 186.751 24.7532 186.142 24.5709C185.517 24.3782 185.001 24.1855 184.6 23.9876C184.21 23.7949 183.871 23.5189 183.579 23.1543C183.298 22.7949 183.163 22.3314 183.163 21.7584C183.163 21.2324 183.293 20.7584 183.559 20.3418C183.835 19.9251 184.236 19.6022 184.767 19.3626C185.293 19.1126 185.918 18.9876 186.642 18.9876C187.335 18.9876 187.944 19.123 188.475 19.3834C189.017 19.6491 189.434 20.0084 189.725 20.4668C190.027 20.9251 190.204 21.4407 190.246 22.0084H187.85C187.767 21.3001 187.361 20.9459 186.642 20.9459C186.293 20.9459 186.027 21.0189 185.85 21.1543C185.684 21.2949 185.6 21.4668 185.6 21.6751C185.6 21.9407 185.73 22.1491 185.996 22.3001C186.257 22.4564 186.689 22.623 187.288 22.8001C187.923 22.9824 188.444 23.1699 188.85 23.3626C189.251 23.5449 189.6 23.8209 189.892 24.1959C190.194 24.5709 190.35 25.0605 190.35 25.6543C190.35 26.5293 190.027 27.2376 189.392 27.7793C188.751 28.3209 187.861 28.5918 186.725 28.5918Z" fill="#2A4546"/>
<path d="M195.227 28.5918C194.31 28.5918 193.565 28.2949 192.997 27.6959C192.424 27.1022 192.143 26.2897 192.143 25.2584V21.3834H190.727V19.4043H191.352C191.695 19.4043 191.961 19.3157 192.143 19.1334C192.336 18.9407 192.435 18.6699 192.435 18.3209V16.9251H194.581V19.2168H196.456V21.3834H194.581V25.0084C194.581 25.4407 194.69 25.7689 194.914 25.9876C195.133 26.1959 195.44 26.3001 195.831 26.3001C196.081 26.3001 196.289 26.2584 196.456 26.1751V28.4043C196.081 28.5293 195.669 28.5918 195.227 28.5918Z" fill="#2A4546"/>
<path d="M201.275 18.9876C202.452 18.9876 203.385 19.3522 204.067 20.0709C204.744 20.7793 205.088 21.7272 205.088 22.9043V28.3626H203.255L202.859 27.4668H202.775C202.051 28.2168 201.182 28.5918 200.171 28.5918C199.598 28.5918 199.077 28.472 198.609 28.2376C198.135 28.0032 197.76 27.6751 197.484 27.2584C197.218 26.8418 197.088 26.3782 197.088 25.8626C197.088 25.2532 197.275 24.7168 197.65 24.2584C198.025 23.8001 198.536 23.4459 199.192 23.1959C199.859 22.9459 200.619 22.8209 201.484 22.8209H202.65V22.6543C202.65 22.1855 202.525 21.8157 202.275 21.5501C202.025 21.2897 201.682 21.1543 201.255 21.1543C200.88 21.1543 200.577 21.2584 200.359 21.4668C200.135 21.6647 200.005 21.873 199.963 22.0918H197.525C197.567 21.5501 197.734 21.0449 198.025 20.5709C198.327 20.1022 198.755 19.7168 199.296 19.4251C199.848 19.1334 200.51 18.9876 201.275 18.9876ZM200.755 26.6126C201.307 26.6126 201.76 26.4459 202.109 26.1126C202.468 25.7793 202.65 25.3834 202.65 24.9251V24.4668H201.421C200.755 24.4668 200.265 24.5709 199.963 24.7793C199.671 24.9876 199.525 25.2741 199.525 25.6334C199.525 25.9251 199.63 26.1647 199.838 26.3418C200.046 26.5241 200.348 26.6126 200.755 26.6126Z" fill="#2A4546"/>
<path d="M215.035 28.5918C214.077 28.5918 213.243 28.4095 212.535 28.0501C211.827 27.6908 211.27 27.196 210.868 26.571C210.462 25.9355 210.249 25.2116 210.223 24.4043H212.785C212.853 24.9616 213.077 25.4199 213.452 25.7793C213.837 26.1283 214.368 26.3001 215.035 26.3001C215.671 26.3001 216.15 26.1751 216.473 25.9251C216.806 25.6751 216.973 25.3626 216.973 24.9876C216.973 24.6855 216.858 24.4251 216.639 24.2168C216.431 23.998 216.16 23.8158 215.827 23.6751C215.504 23.5397 215.061 23.373 214.493 23.1751C213.66 22.9147 212.973 22.6491 212.431 22.3835C211.9 22.1074 211.441 21.7168 211.056 21.2168C210.681 20.7064 210.493 20.0397 210.493 19.2168C210.493 18.5397 210.665 17.9199 211.014 17.3626C211.358 16.8105 211.868 16.3783 212.535 16.071C213.202 15.7533 213.978 15.5918 214.868 15.5918C215.728 15.5918 216.493 15.7741 217.16 16.1335C217.837 16.4824 218.368 16.9668 218.743 17.5918C219.129 18.2168 219.337 18.9147 219.368 19.6751H216.806C216.775 19.1491 216.587 18.7168 216.243 18.3835C215.895 18.0501 215.436 17.8835 214.868 17.8835C214.296 17.8835 213.853 18.0189 213.535 18.2793C213.212 18.5293 213.056 18.8574 213.056 19.2585C213.056 19.5658 213.16 19.8314 213.368 20.0501C213.587 20.2585 213.858 20.4355 214.181 20.571C214.499 20.696 214.952 20.8574 215.535 21.0501C216.353 21.3158 217.035 21.5814 217.577 21.8418C218.118 22.0918 218.577 22.4668 218.952 22.9668C219.337 23.4564 219.535 24.1022 219.535 24.9043C219.535 25.6126 219.353 26.248 218.993 26.8001C218.645 27.3574 218.129 27.7949 217.452 28.1126C216.77 28.4303 215.962 28.5918 215.035 28.5918Z" fill="#2A4546"/>
<path d="M224.969 28.5918C224.146 28.5918 223.376 28.373 222.657 27.9459C221.933 27.5032 221.355 26.9147 220.928 26.1751C220.511 25.4407 220.303 24.6491 220.303 23.8001C220.303 22.9564 220.511 22.1647 220.928 21.4251C221.355 20.6751 221.933 20.0866 222.657 19.6543C223.376 19.2116 224.146 18.9876 224.969 18.9876C225.787 18.9876 226.558 19.2116 227.282 19.6543C228.001 20.0866 228.574 20.6751 228.99 21.4251C229.417 22.1647 229.636 22.9564 229.636 23.8001C229.636 24.6491 229.417 25.4407 228.99 26.1751C228.574 26.9147 228.001 27.5032 227.282 27.9459C226.558 28.373 225.787 28.5918 224.969 28.5918ZM224.969 26.3418C225.605 26.3418 226.136 26.1074 226.553 25.6334C226.98 25.1491 227.199 24.5397 227.199 23.8001C227.199 23.0501 226.98 22.4407 226.553 21.9668C226.136 21.498 225.605 21.2584 224.969 21.2584C224.329 21.2584 223.792 21.498 223.365 21.9668C222.933 22.4407 222.719 23.0501 222.719 23.8001C222.719 24.5397 222.933 25.1491 223.365 25.6334C223.792 26.1074 224.329 26.3418 224.969 26.3418Z" fill="#2A4546"/>
<path d="M233.342 28.3626H230.904V15.821H233.342V28.3626Z" fill="#2A4546"/>
<path d="M237.538 28.3626H235.1V19.2168H237.538V28.3626ZM236.309 18.0501C235.918 18.0501 235.59 17.9251 235.329 17.6751C235.064 17.4147 234.934 17.0866 234.934 16.696C234.934 16.321 235.064 16.0033 235.329 15.7376C235.59 15.4772 235.918 15.3418 236.309 15.3418C236.684 15.3418 237.001 15.4772 237.267 15.7376C237.527 16.0033 237.663 16.321 237.663 16.696C237.663 17.0866 237.527 17.4147 237.267 17.6751C237.001 17.9251 236.684 18.0501 236.309 18.0501Z" fill="#2A4546"/>
<path d="M242.927 28.5918C242.187 28.5918 241.495 28.3835 240.844 27.9668C240.187 27.5501 239.667 26.9772 239.281 26.2376C238.906 25.5032 238.719 24.6907 238.719 23.8001C238.719 22.8991 238.906 22.0814 239.281 21.3418C239.667 20.6074 240.187 20.0293 240.844 19.6126C241.495 19.196 242.187 18.9876 242.927 18.9876C243.328 18.9876 243.698 19.0501 244.031 19.1751C244.375 19.3001 244.661 19.446 244.885 19.6126C245.104 19.7689 245.25 19.8991 245.323 20.0085H245.406V15.821H247.844V28.3626H246.01L245.615 27.4668H245.531C245.333 27.7168 245.01 27.9668 244.552 28.2168C244.094 28.4668 243.552 28.5918 242.927 28.5918ZM243.281 26.3418C243.656 26.3418 244 26.2376 244.323 26.0293C244.656 25.8105 244.917 25.5032 245.115 25.1126C245.307 24.7272 245.406 24.2897 245.406 23.8001C245.406 23.3001 245.307 22.8626 245.115 22.4876C244.917 22.1022 244.656 21.8001 244.323 21.5918C244 21.373 243.656 21.2585 243.281 21.2585C242.891 21.2585 242.536 21.373 242.219 21.5918C241.896 21.8001 241.635 22.1022 241.427 22.4876C241.229 22.8626 241.135 23.3001 241.135 23.8001C241.135 24.2897 241.229 24.7272 241.427 25.1126C241.635 25.5032 241.896 25.8105 242.219 26.0293C242.536 26.2376 242.891 26.3418 243.281 26.3418Z" fill="#2A4546"/>
<path d="M253.18 18.9876C254.357 18.9876 255.289 19.3522 255.971 20.0709C256.648 20.7793 256.992 21.7272 256.992 22.9043V28.3626H255.159L254.763 27.4668H254.68C253.956 28.2168 253.086 28.5918 252.076 28.5918C251.503 28.5918 250.982 28.472 250.513 28.2376C250.039 28.0032 249.664 27.6751 249.388 27.2584C249.122 26.8418 248.992 26.3782 248.992 25.8626C248.992 25.2532 249.18 24.7168 249.555 24.2584C249.93 23.8001 250.44 23.4459 251.096 23.1959C251.763 22.9459 252.523 22.8209 253.388 22.8209H254.555V22.6543C254.555 22.1855 254.43 21.8157 254.18 21.5501C253.93 21.2897 253.586 21.1543 253.159 21.1543C252.784 21.1543 252.482 21.2584 252.263 21.4668C252.039 21.6647 251.909 21.873 251.867 22.0918H249.43C249.471 21.5501 249.638 21.0449 249.93 20.5709C250.232 20.1022 250.659 19.7168 251.201 19.4251C251.753 19.1334 252.414 18.9876 253.18 18.9876ZM252.659 26.6126C253.211 26.6126 253.664 26.4459 254.013 26.1126C254.372 25.7793 254.555 25.3834 254.555 24.9251V24.4668H253.326C252.659 24.4668 252.169 24.5709 251.867 24.7793C251.576 24.9876 251.43 25.2741 251.43 25.6334C251.43 25.9251 251.534 26.1647 251.742 26.3418C251.951 26.5241 252.253 26.6126 252.659 26.6126Z" fill="#2A4546"/>
<path d="M258.564 28.3626V19.2168H260.377L260.773 20.1126H260.877C261.054 19.8782 261.325 19.6334 261.689 19.3834C262.049 19.123 262.486 18.9876 263.002 18.9876C263.32 18.9876 263.596 19.0241 263.835 19.0918V21.5084C263.596 21.4564 263.294 21.4251 262.919 21.4251C262.335 21.4251 261.867 21.6074 261.523 21.9668C261.174 22.3157 261.002 22.8001 261.002 23.4251V28.3626H258.564Z" fill="#2A4546"/>
<path d="M267.087 28.3626H264.649V19.2168H267.087V28.3626ZM265.857 18.0501C265.467 18.0501 265.139 17.9251 264.878 17.6751C264.613 17.4147 264.482 17.0866 264.482 16.696C264.482 16.321 264.613 16.0033 264.878 15.7376C265.139 15.4772 265.467 15.3418 265.857 15.3418C266.232 15.3418 266.55 15.4772 266.816 15.7376C267.076 16.0033 267.212 16.321 267.212 16.696C267.212 17.0866 267.076 17.4147 266.816 17.6751C266.55 17.9251 266.232 18.0501 265.857 18.0501Z" fill="#2A4546"/>
<path d="M272.33 18.9876C273.507 18.9876 274.439 19.3522 275.122 20.0709C275.799 20.7793 276.143 21.7272 276.143 22.9043V28.3626H274.309L273.913 27.4668H273.83C273.106 28.2168 272.236 28.5918 271.226 28.5918C270.653 28.5918 270.132 28.472 269.663 28.2376C269.189 28.0032 268.814 27.6751 268.538 27.2584C268.273 26.8418 268.143 26.3782 268.143 25.8626C268.143 25.2532 268.33 24.7168 268.705 24.2584C269.08 23.8001 269.59 23.4459 270.247 23.1959C270.913 22.9459 271.674 22.8209 272.538 22.8209H273.705V22.6543C273.705 22.1855 273.58 21.8157 273.33 21.5501C273.08 21.2897 272.736 21.1543 272.309 21.1543C271.934 21.1543 271.632 21.2584 271.413 21.4668C271.189 21.6647 271.059 21.873 271.018 22.0918H268.58C268.622 21.5501 268.788 21.0449 269.08 20.5709C269.382 20.1022 269.809 19.7168 270.351 19.4251C270.903 19.1334 271.564 18.9876 272.33 18.9876ZM271.809 26.6126C272.361 26.6126 272.814 26.4459 273.163 26.1126C273.523 25.7793 273.705 25.3834 273.705 24.9251V24.4668H272.476C271.809 24.4668 271.32 24.5709 271.018 24.7793C270.726 24.9876 270.58 25.2741 270.58 25.6334C270.58 25.9251 270.684 26.1647 270.893 26.3418C271.101 26.5241 271.403 26.6126 271.809 26.6126Z" fill="#2A4546"/>
<path d="M160.037 56.1963L161.891 52.2172H162.912V57.863H161.808V54.613L160.287 57.863H159.704L158.204 54.6338V57.863H157.1V52.2172H158.204L160.037 56.1963Z" fill="#2A4546"/>
<path d="M168.949 57.863H167.741L167.345 56.6963H165.22L164.803 57.863H163.637L165.741 52.2172H166.866L168.949 57.863ZM166.97 55.6338L166.283 53.6547L165.595 55.6338H166.97Z" fill="#2A4546"/>
<path d="M169.674 57.863V52.2172H171.549C172.049 52.2172 172.512 52.3422 172.945 52.5922C173.372 52.8422 173.715 53.1911 173.965 53.6338C174.215 54.0661 174.34 54.5401 174.34 55.0505C174.34 55.5661 174.205 56.0401 173.945 56.4672C173.695 56.8995 173.351 57.238 172.924 57.488C172.507 57.738 172.049 57.863 171.549 57.863H169.674ZM171.549 56.7588C171.84 56.7588 172.111 56.6859 172.361 56.5297C172.611 56.3786 172.804 56.1703 172.945 55.9047C173.096 55.6442 173.174 55.3578 173.174 55.0505C173.174 54.7328 173.096 54.4411 172.945 54.1755C172.804 53.9151 172.611 53.712 172.361 53.5713C172.111 53.4203 171.84 53.3422 171.549 53.3422H170.82V56.7588H171.549Z" fill="#2A4546"/>
<path d="M176.511 55.5088V56.7588H179.303V57.863H175.365V52.2172H179.219V53.3213H176.511V54.4463H178.928V55.5088H176.511Z" fill="#2A4546"/>
<path d="M187.29 55.863L188.353 52.2172H189.499L187.728 57.863H186.79L185.79 54.4047L184.79 57.863H183.853L182.082 52.2172H183.27L184.332 55.863L185.374 52.2172H186.249L187.29 55.863Z" fill="#2A4546"/>
<path d="M191.454 57.863H190.309V52.2172H191.454V57.863Z" fill="#2A4546"/>
<path d="M195.124 57.863H193.978V53.3422H192.332V52.2172H196.77V53.3422H195.124V57.863Z" fill="#2A4546"/>
<path d="M201.101 54.4255V52.2172H202.247V57.863H201.101V55.5297H198.788V57.863H197.643V52.2172H198.788V54.4255H201.101Z" fill="#2A4546"/>
<path d="M209.587 57.863H205.816V52.2172H206.962V56.7588H209.587V57.863Z" fill="#2A4546"/>
<path d="M212.913 57.9672C212.413 57.9672 211.945 57.8369 211.518 57.5713C211.101 57.3109 210.768 56.9567 210.518 56.5088C210.268 56.0661 210.143 55.5817 210.143 55.0505C210.143 54.5088 210.268 54.0192 210.518 53.5713C210.768 53.1286 211.101 52.7745 211.518 52.5088C211.945 52.2484 212.413 52.113 212.913 52.113C213.398 52.113 213.856 52.2484 214.288 52.5088C214.715 52.7745 215.059 53.1286 215.309 53.5713C215.559 54.0192 215.684 54.5088 215.684 55.0505C215.684 55.5817 215.559 56.0661 215.309 56.5088C215.059 56.9567 214.715 57.3109 214.288 57.5713C213.856 57.8369 213.398 57.9672 212.913 57.9672ZM212.913 56.863C213.205 56.863 213.465 56.7901 213.705 56.6338C213.955 56.4672 214.153 56.2484 214.309 55.9672C214.46 55.6911 214.538 55.3838 214.538 55.0505C214.538 54.7067 214.46 54.3942 214.309 54.113C214.153 53.837 213.955 53.6234 213.705 53.4672C213.465 53.3005 213.205 53.2172 212.913 53.2172C212.622 53.2172 212.351 53.3005 212.101 53.4672C211.851 53.6234 211.648 53.837 211.497 54.113C211.356 54.3942 211.288 54.7067 211.288 55.0505C211.288 55.3838 211.356 55.6911 211.497 55.9672C211.648 56.2484 211.851 56.4672 212.101 56.6338C212.351 56.7901 212.622 56.863 212.913 56.863Z" fill="#2A4546"/>
<path d="M218.798 56.2797L220.193 52.2172H221.36L219.36 57.863H218.193L216.193 52.2172H217.423L218.798 56.2797Z" fill="#2A4546"/>
<path d="M223.316 55.5088V56.7588H226.107V57.863H222.17V52.2172H226.024V53.3213H223.316V54.4463H225.732V55.5088H223.316Z" fill="#2A4546"/>
<path d="M232.804 54.863C233.038 54.962 233.252 55.1286 233.45 55.363C233.643 55.587 233.742 55.8838 233.742 56.2588C233.742 56.5505 233.663 56.8213 233.512 57.0713C233.356 57.3109 233.137 57.5036 232.846 57.6547C232.564 57.7953 232.252 57.863 231.908 57.863H229.408V52.2172H231.804C232.137 52.2172 232.434 52.2901 232.7 52.4255C232.96 52.5505 233.163 52.7328 233.304 52.9672C233.439 53.1911 233.512 53.4411 233.512 53.7172C233.512 54.0245 233.439 54.2745 233.304 54.4672C233.163 54.6651 232.997 54.7953 232.804 54.863ZM230.554 53.1963V54.4463H231.658C231.867 54.4463 232.033 54.3942 232.158 54.2797C232.294 54.1547 232.367 54.0036 232.367 53.8213C232.367 53.6442 232.294 53.4984 232.158 53.3838C232.033 53.2588 231.867 53.1963 231.658 53.1963H230.554ZM231.762 56.8838C232.012 56.8838 232.21 56.8161 232.367 56.6755C232.518 56.5401 232.596 56.3578 232.596 56.1338C232.596 55.9255 232.518 55.7536 232.367 55.613C232.21 55.4776 232.012 55.4047 231.762 55.4047H230.554V56.8838H231.762Z" fill="#2A4546"/>
<path d="M236.594 54.5297L237.74 52.2172H238.99L237.156 55.7588V57.863H235.99V55.7588L234.156 52.2172H235.448L236.594 54.5297Z" fill="#2A4546"/>
<path d="M244.087 52.2172C244.462 52.2172 244.796 52.3005 245.087 52.4672C245.389 52.6338 245.629 52.863 245.796 53.1547C245.962 53.4463 246.046 53.7745 246.046 54.1338C246.046 54.4984 245.962 54.8213 245.796 55.113C245.629 55.4047 245.389 55.6338 245.087 55.8005C244.796 55.9672 244.462 56.0505 244.087 56.0505H243.087V57.863H241.941V52.2172H244.087ZM244.066 54.9255C244.301 54.9255 244.493 54.8526 244.65 54.6963C244.816 54.5453 244.9 54.3578 244.9 54.1338C244.9 53.9151 244.816 53.7276 244.65 53.5713C244.493 53.4203 244.301 53.3422 244.066 53.3422H243.087V54.9255H244.066Z" fill="#2A4546"/>
<path d="M250.872 57.863H247.102V52.2172H248.247V56.7588H250.872V57.863Z" fill="#2A4546"/>
<path d="M256.428 57.863H255.219L254.824 56.6963H252.699L252.282 57.863H251.115L253.219 52.2172H254.344L256.428 57.863ZM254.449 55.6338L253.761 53.6547L253.074 55.6338H254.449Z" fill="#2A4546"/>
<path d="M259.632 57.9672C259.132 57.9672 258.663 57.8369 258.236 57.5713C257.82 57.3109 257.486 56.9567 257.236 56.5088C256.986 56.0661 256.861 55.5817 256.861 55.0505C256.861 54.5088 256.986 54.0192 257.236 53.5713C257.486 53.1286 257.82 52.7745 258.236 52.5088C258.663 52.2484 259.132 52.113 259.632 52.113C260.075 52.113 260.471 52.2172 260.82 52.4255C261.179 52.6234 261.471 52.8786 261.695 53.1963C261.929 53.5192 262.096 53.8578 262.195 54.2172H260.986C260.903 53.9567 260.742 53.7276 260.507 53.5297C260.268 53.3213 259.976 53.2172 259.632 53.2172C259.34 53.2172 259.07 53.3005 258.82 53.4672C258.57 53.6234 258.367 53.837 258.215 54.113C258.075 54.3942 258.007 54.7067 258.007 55.0505C258.007 55.3838 258.075 55.6911 258.215 55.9672C258.367 56.2484 258.57 56.4672 258.82 56.6338C259.07 56.7901 259.34 56.863 259.632 56.863C259.976 56.863 260.268 56.7692 260.507 56.5713C260.757 56.363 260.929 56.1286 261.028 55.863H262.236C262.137 56.2276 261.971 56.5661 261.736 56.8838C261.512 57.2067 261.221 57.4672 260.861 57.6755C260.497 57.8682 260.09 57.9672 259.632 57.9672Z" fill="#2A4546"/>
<path d="M59.4141 117.851V112.205H61.2891C61.7891 112.205 62.2526 112.33 62.6849 112.58C63.112 112.83 63.4557 113.179 63.7057 113.622C63.9557 114.054 64.0807 114.528 64.0807 115.038C64.0807 115.554 63.9453 116.028 63.6849 116.455C63.4349 116.887 63.0911 117.226 62.6641 117.476C62.2474 117.726 61.7891 117.851 61.2891 117.851H59.4141ZM61.2891 116.747C61.5807 116.747 61.8516 116.674 62.1016 116.518C62.3516 116.367 62.5443 116.158 62.6849 115.893C62.8359 115.632 62.9141 115.346 62.9141 115.038C62.9141 114.721 62.8359 114.429 62.6849 114.163C62.5443 113.903 62.3516 113.7 62.1016 113.559C61.8516 113.408 61.5807 113.33 61.2891 113.33H60.5599V116.747H61.2891Z" fill="black"/>
<path d="M69.6263 115.497V116.747H72.418V117.851H68.4805V112.205H72.3346V113.309H69.6263V114.434H72.043V115.497H69.6263Z" fill="black"/>
<path d="M78.7174 117.955C78.2852 117.955 77.9102 117.872 77.5924 117.705C77.2695 117.538 77.0195 117.32 76.8424 117.038C76.6602 116.747 76.5612 116.424 76.5508 116.059H77.6966C77.7383 116.325 77.8424 116.533 78.0091 116.684C78.1758 116.841 78.4102 116.913 78.7174 116.913C79.0091 116.913 79.2227 116.861 79.3633 116.747C79.5143 116.637 79.5924 116.497 79.5924 116.33C79.5924 116.195 79.5404 116.075 79.4466 115.976C79.3477 115.882 79.2227 115.804 79.0716 115.747C78.931 115.679 78.7279 115.601 78.4674 115.518C78.0924 115.393 77.7852 115.278 77.5508 115.163C77.3112 115.038 77.1029 114.867 76.9258 114.643C76.7591 114.408 76.6758 114.111 76.6758 113.747C76.6758 113.429 76.7487 113.153 76.9049 112.913C77.0716 112.663 77.3008 112.471 77.5924 112.33C77.8945 112.179 78.2487 112.101 78.6549 112.101C79.0299 112.101 79.3685 112.184 79.6758 112.351C79.9779 112.507 80.2174 112.726 80.3841 113.018C80.5612 113.299 80.6602 113.601 80.6758 113.934H79.5091C79.4935 113.7 79.4102 113.512 79.2591 113.372C79.1029 113.221 78.9049 113.143 78.6549 113.143C78.3893 113.143 78.1862 113.2 78.0508 113.309C77.9102 113.424 77.8424 113.57 77.8424 113.747C77.8424 113.887 77.8841 114.007 77.9674 114.101C78.0612 114.2 78.181 114.283 78.3216 114.351C78.4727 114.408 78.681 114.476 78.9466 114.559C79.3216 114.684 79.6237 114.804 79.8633 114.913C80.0977 115.028 80.3008 115.195 80.4674 115.413C80.6445 115.637 80.7383 115.929 80.7383 116.288C80.7383 116.611 80.6549 116.893 80.4883 117.143C80.332 117.393 80.1029 117.596 79.8008 117.747C79.4935 117.882 79.1341 117.955 78.7174 117.955Z" fill="black"/>
<path d="M86.3197 117.851H85.1738V112.205H86.3197V117.851Z" fill="black"/>
<path d="M93.5755 114.872H96.138V117.851H95.4714L95.263 117.101C95.0964 117.341 94.8516 117.538 94.5339 117.705C94.2266 117.872 93.888 117.955 93.513 117.955C93.013 117.955 92.5443 117.825 92.1172 117.559C91.7005 117.299 91.3672 116.945 91.1172 116.497C90.8672 116.054 90.7422 115.57 90.7422 115.038C90.7422 114.497 90.8672 114.007 91.1172 113.559C91.3672 113.117 91.7005 112.762 92.1172 112.497C92.5443 112.236 93.013 112.101 93.513 112.101C93.9557 112.101 94.3568 112.2 94.7214 112.393C95.0964 112.575 95.3932 112.82 95.6172 113.122C95.8516 113.429 96.0026 113.742 96.0755 114.059H94.8672C94.7839 113.841 94.6224 113.643 94.388 113.476C94.1484 113.299 93.8568 113.205 93.513 113.205C93.2214 113.205 92.9505 113.288 92.7005 113.455C92.4505 113.611 92.2474 113.825 92.0964 114.101C91.9557 114.382 91.888 114.695 91.888 115.038C91.888 115.372 91.9557 115.679 92.0964 115.955C92.2474 116.236 92.4505 116.455 92.7005 116.622C92.9505 116.778 93.2214 116.851 93.513 116.851C93.8984 116.851 94.2109 116.747 94.4505 116.538C94.7005 116.33 94.8568 116.101 94.9297 115.851H93.5755V114.872Z" fill="black"/>
<path d="M104.357 115.893V112.205H105.482V117.851H104.42L101.899 114.163V117.851H100.795V112.205H101.857L104.357 115.893Z" fill="black"/>
<path d="M111.324 115.497V116.747H114.115V117.851H110.178V112.205H114.032V113.309H111.324V114.434H113.74V115.497H111.324Z" fill="black"/>
<path d="M118.561 117.851V112.205H120.436C120.936 112.205 121.399 112.33 121.831 112.58C122.258 112.83 122.602 113.179 122.852 113.622C123.102 114.054 123.227 114.528 123.227 115.038C123.227 115.554 123.092 116.028 122.831 116.455C122.581 116.887 122.238 117.226 121.811 117.476C121.394 117.726 120.936 117.851 120.436 117.851H118.561ZM120.436 116.747C120.727 116.747 120.998 116.674 121.248 116.518C121.498 116.367 121.691 116.158 121.831 115.893C121.982 115.632 122.061 115.346 122.061 115.038C122.061 114.721 121.982 114.429 121.831 114.163C121.691 113.903 121.498 113.7 121.248 113.559C120.998 113.408 120.727 113.33 120.436 113.33H119.706V116.747H120.436Z" fill="black"/>
<path d="M137.945 117.851H136.737L136.341 116.684H134.216L133.799 117.851H132.633L134.737 112.205H135.862L137.945 117.851ZM135.966 115.622L135.279 113.643L134.591 115.622H135.966Z" fill="black"/>
<path d="M145.609 115.893V112.205H146.734V117.851H145.672L143.151 114.163V117.851H142.047V112.205H143.109L145.609 115.893Z" fill="black"/>
<path d="M151.43 117.851V112.205H153.305C153.805 112.205 154.268 112.33 154.701 112.58C155.128 112.83 155.471 113.179 155.721 113.622C155.971 114.054 156.096 114.528 156.096 115.038C156.096 115.554 155.961 116.028 155.701 116.455C155.451 116.887 155.107 117.226 154.68 117.476C154.263 117.726 153.805 117.851 153.305 117.851H151.43ZM153.305 116.747C153.596 116.747 153.867 116.674 154.117 116.518C154.367 116.367 154.56 116.158 154.701 115.893C154.852 115.632 154.93 115.346 154.93 115.038C154.93 114.721 154.852 114.429 154.701 114.163C154.56 113.903 154.367 113.7 154.117 113.559C153.867 113.408 153.596 113.33 153.305 113.33H152.576V116.747H153.305Z" fill="black"/>
<path d="M168.253 112.205C168.628 112.205 168.962 112.288 169.253 112.455C169.555 112.622 169.795 112.851 169.962 113.143C170.128 113.434 170.212 113.762 170.212 114.122C170.212 114.486 170.128 114.809 169.962 115.101C169.795 115.393 169.555 115.622 169.253 115.788C168.962 115.955 168.628 116.038 168.253 116.038H167.253V117.851H166.107V112.205H168.253ZM168.232 114.913C168.467 114.913 168.66 114.841 168.816 114.684C168.982 114.533 169.066 114.346 169.066 114.122C169.066 113.903 168.982 113.716 168.816 113.559C168.66 113.408 168.467 113.33 168.232 113.33H167.253V114.913H168.232Z" fill="black"/>
<path d="M177.684 117.851L176.538 115.809H175.788V117.851H174.643V112.205H176.934C177.294 112.205 177.622 112.288 177.913 112.455C178.205 112.611 178.434 112.825 178.601 113.101C178.768 113.367 178.851 113.679 178.851 114.038C178.851 114.387 178.747 114.705 178.538 114.997C178.33 115.288 178.044 115.507 177.684 115.643L178.997 117.851H177.684ZM175.788 113.309V114.768H176.893C177.127 114.768 177.314 114.7 177.455 114.559C177.606 114.424 177.684 114.247 177.684 114.038C177.684 113.82 177.606 113.643 177.455 113.518C177.314 113.382 177.127 113.309 176.893 113.309H175.788Z" fill="black"/>
<path d="M184.493 117.851H183.348V112.205H184.493V117.851Z" fill="black"/>
<path d="M192.77 115.893V112.205H193.895V117.851H192.832L190.311 114.163V117.851H189.207V112.205H190.27L192.77 115.893Z" fill="black"/>
<path d="M200.923 117.851H199.777V113.33H198.131V112.205H202.568V113.33H200.923V117.851Z" fill="black"/>
<path d="M207.966 115.497V116.747H210.758V117.851H206.82V112.205H210.674V113.309H207.966V114.434H210.383V115.497H207.966Z" fill="black"/>
<path d="M215.203 117.851V112.205H217.078C217.578 112.205 218.042 112.33 218.474 112.58C218.901 112.83 219.245 113.179 219.495 113.622C219.745 114.054 219.87 114.528 219.87 115.038C219.87 115.554 219.734 116.028 219.474 116.455C219.224 116.887 218.88 117.226 218.453 117.476C218.036 117.726 217.578 117.851 217.078 117.851H215.203ZM217.078 116.747C217.37 116.747 217.641 116.674 217.891 116.518C218.141 116.367 218.333 116.158 218.474 115.893C218.625 115.632 218.703 115.346 218.703 115.038C218.703 114.721 218.625 114.429 218.474 114.163C218.333 113.903 218.141 113.7 217.891 113.559C217.641 113.408 217.37 113.33 217.078 113.33H216.349V116.747H217.078Z" fill="black"/>
<path d="M231.027 117.851H229.881V112.205H231.027V117.851Z" fill="black"/>
<path d="M239.303 115.893V112.205H240.428V117.851H239.365L236.844 114.163V117.851H235.74V112.205H236.803L239.303 115.893Z" fill="black"/>
<path d="M61.8236 124.255C62.0579 124.354 62.2715 124.52 62.4694 124.755C62.6621 124.979 62.7611 125.275 62.7611 125.65C62.7611 125.942 62.6829 126.213 62.5319 126.463C62.3757 126.702 62.1569 126.895 61.8652 127.046C61.584 127.187 61.2715 127.255 60.9277 127.255H58.4277V121.609H60.8236C61.1569 121.609 61.4538 121.682 61.7194 121.817C61.9798 121.942 62.1829 122.124 62.3236 122.359C62.459 122.583 62.5319 122.833 62.5319 123.109C62.5319 123.416 62.459 123.666 62.3236 123.859C62.1829 124.057 62.0163 124.187 61.8236 124.255ZM59.5736 122.588V123.838H60.6777C60.8861 123.838 61.0527 123.786 61.1777 123.671C61.3132 123.546 61.3861 123.395 61.3861 123.213C61.3861 123.036 61.3132 122.89 61.1777 122.775C61.0527 122.65 60.8861 122.588 60.6777 122.588H59.5736ZM60.7819 126.275C61.0319 126.275 61.2298 126.208 61.3861 126.067C61.5371 125.932 61.6152 125.749 61.6152 125.525C61.6152 125.317 61.5371 125.145 61.3861 125.005C61.2298 124.869 61.0319 124.796 60.7819 124.796H59.5736V126.275H60.7819Z" fill="black"/>
<path d="M69.3861 127.359C68.9382 127.359 68.5423 127.26 68.1986 127.067C67.8496 126.859 67.5788 126.583 67.3861 126.234C67.2038 125.89 67.1152 125.505 67.1152 125.088V121.609H68.2611V125.088C68.2611 125.421 68.3548 125.702 68.5527 125.921C68.7611 126.145 69.0371 126.255 69.3861 126.255C69.7298 126.255 70.0007 126.145 70.1986 125.921C70.4069 125.702 70.5111 125.421 70.5111 125.088V121.609H71.6569V125.088C71.6569 125.505 71.5579 125.89 71.3652 126.234C71.1829 126.583 70.9173 126.859 70.5736 127.067C70.2246 127.26 69.8288 127.359 69.3861 127.359Z" fill="black"/>
<path d="M77.474 124.9V126.15H80.2656V127.255H76.3281V121.609H80.1823V122.713H77.474V123.838H79.8906V124.9H77.474Z" fill="black"/>
<path d="M88.2734 125.296V121.609H89.3984V127.255H88.3359L85.8151 123.567V127.255H84.7109V121.609H85.7734L88.2734 125.296Z" fill="black"/>
<path d="M96.5736 127.359C96.0736 127.359 95.6048 127.229 95.1777 126.963C94.7611 126.702 94.4277 126.348 94.1777 125.9C93.9277 125.458 93.8027 124.973 93.8027 124.442C93.8027 123.9 93.9277 123.411 94.1777 122.963C94.4277 122.52 94.7611 122.166 95.1777 121.9C95.6048 121.64 96.0736 121.505 96.5736 121.505C97.0579 121.505 97.5163 121.64 97.9486 121.9C98.3757 122.166 98.7194 122.52 98.9694 122.963C99.2194 123.411 99.3444 123.9 99.3444 124.442C99.3444 124.973 99.2194 125.458 98.9694 125.9C98.7194 126.348 98.3757 126.702 97.9486 126.963C97.5163 127.229 97.0579 127.359 96.5736 127.359ZM96.5736 126.255C96.8652 126.255 97.1257 126.182 97.3652 126.025C97.6152 125.859 97.8132 125.64 97.9694 125.359C98.1204 125.083 98.1986 124.775 98.1986 124.442C98.1986 124.098 98.1204 123.786 97.9694 123.505C97.8132 123.229 97.6152 123.015 97.3652 122.859C97.1257 122.692 96.8652 122.609 96.5736 122.609C96.2819 122.609 96.0111 122.692 95.7611 122.859C95.5111 123.015 95.3079 123.229 95.1569 123.505C95.0163 123.786 94.9486 124.098 94.9486 124.442C94.9486 124.775 95.0163 125.083 95.1569 125.359C95.3079 125.64 95.5111 125.859 95.7611 126.025C96.0111 126.182 96.2819 126.255 96.5736 126.255Z" fill="black"/>
<path d="M105.604 127.359C105.172 127.359 104.797 127.275 104.479 127.109C104.156 126.942 103.906 126.723 103.729 126.442C103.547 126.15 103.448 125.827 103.438 125.463H104.583C104.625 125.729 104.729 125.937 104.896 126.088C105.063 126.244 105.297 126.317 105.604 126.317C105.896 126.317 106.109 126.265 106.25 126.15C106.401 126.041 106.479 125.9 106.479 125.734C106.479 125.598 106.427 125.479 106.333 125.38C106.234 125.286 106.109 125.208 105.958 125.15C105.818 125.083 105.615 125.005 105.354 124.921C104.979 124.796 104.672 124.682 104.438 124.567C104.198 124.442 103.99 124.27 103.813 124.046C103.646 123.812 103.563 123.515 103.563 123.15C103.563 122.833 103.635 122.557 103.792 122.317C103.958 122.067 104.188 121.874 104.479 121.734C104.781 121.583 105.135 121.505 105.542 121.505C105.917 121.505 106.255 121.588 106.563 121.755C106.865 121.911 107.104 122.13 107.271 122.421C107.448 122.702 107.547 123.005 107.563 123.338H106.396C106.38 123.104 106.297 122.916 106.146 122.775C105.99 122.624 105.792 122.546 105.542 122.546C105.276 122.546 105.073 122.604 104.938 122.713C104.797 122.827 104.729 122.973 104.729 123.15C104.729 123.291 104.771 123.411 104.854 123.505C104.948 123.604 105.068 123.687 105.208 123.755C105.359 123.812 105.568 123.88 105.833 123.963C106.208 124.088 106.51 124.208 106.75 124.317C106.984 124.432 107.188 124.598 107.354 124.817C107.531 125.041 107.625 125.333 107.625 125.692C107.625 126.015 107.542 126.296 107.375 126.546C107.219 126.796 106.99 126.999 106.688 127.15C106.38 127.286 106.021 127.359 105.604 127.359Z" fill="black"/>
<path d="M122.379 127.255H121.171L120.775 126.088H118.65L118.233 127.255H117.066L119.171 121.609H120.296L122.379 127.255ZM120.4 125.025L119.712 123.046L119.025 125.025H120.4Z" fill="black"/>
<path d="M127.626 127.255H126.48V121.609H127.626V127.255Z" fill="black"/>
<path d="M135.382 127.255L134.236 125.213H133.486V127.255H132.34V121.609H134.632C134.991 121.609 135.319 121.692 135.611 121.859C135.902 122.015 136.132 122.229 136.298 122.505C136.465 122.77 136.548 123.083 136.548 123.442C136.548 123.791 136.444 124.109 136.236 124.4C136.027 124.692 135.741 124.911 135.382 125.046L136.694 127.255H135.382ZM133.486 122.713V124.171H134.59C134.824 124.171 135.012 124.104 135.152 123.963C135.303 123.827 135.382 123.65 135.382 123.442C135.382 123.223 135.303 123.046 135.152 122.921C135.012 122.786 134.824 122.713 134.59 122.713H133.486Z" fill="black"/>
<path d="M142.191 124.9V126.15H144.982V127.255H141.045V121.609H144.899V122.713H142.191V123.838H144.607V124.9H142.191Z" fill="black"/>
<path d="M151.282 127.359C150.85 127.359 150.475 127.275 150.157 127.109C149.834 126.942 149.584 126.723 149.407 126.442C149.225 126.15 149.126 125.827 149.115 125.463H150.261C150.303 125.729 150.407 125.937 150.574 126.088C150.74 126.244 150.975 126.317 151.282 126.317C151.574 126.317 151.787 126.265 151.928 126.15C152.079 126.041 152.157 125.9 152.157 125.734C152.157 125.598 152.105 125.479 152.011 125.38C151.912 125.286 151.787 125.208 151.636 125.15C151.495 125.083 151.292 125.005 151.032 124.921C150.657 124.796 150.35 124.682 150.115 124.567C149.876 124.442 149.667 124.27 149.49 124.046C149.324 123.812 149.24 123.515 149.24 123.15C149.24 122.833 149.313 122.557 149.469 122.317C149.636 122.067 149.865 121.874 150.157 121.734C150.459 121.583 150.813 121.505 151.219 121.505C151.594 121.505 151.933 121.588 152.24 121.755C152.542 121.911 152.782 122.13 152.949 122.421C153.126 122.702 153.225 123.005 153.24 123.338H152.074C152.058 123.104 151.975 122.916 151.824 122.775C151.667 122.624 151.469 122.546 151.219 122.546C150.954 122.546 150.751 122.604 150.615 122.713C150.475 122.827 150.407 122.973 150.407 123.15C150.407 123.291 150.449 123.411 150.532 123.505C150.626 123.604 150.745 123.687 150.886 123.755C151.037 123.812 151.245 123.88 151.511 123.963C151.886 124.088 152.188 124.208 152.428 124.317C152.662 124.432 152.865 124.598 153.032 124.817C153.209 125.041 153.303 125.333 153.303 125.692C153.303 126.015 153.219 126.296 153.053 126.546C152.896 126.796 152.667 126.999 152.365 127.15C152.058 127.286 151.699 127.359 151.282 127.359Z" fill="black"/>
<path d="M158.092 126.067C158.285 126.067 158.436 126.14 158.55 126.275C158.675 126.4 158.738 126.577 158.738 126.796C158.738 127.171 158.639 127.494 158.446 127.775C158.264 128.067 158.055 128.296 157.821 128.463L157.633 128.192C157.727 128.077 157.811 127.952 157.883 127.817C157.967 127.692 158.019 127.536 158.05 127.359C157.883 127.343 157.743 127.275 157.633 127.15C157.519 127.025 157.467 126.88 157.467 126.713C157.467 126.536 157.519 126.38 157.633 126.255C157.758 126.13 157.91 126.067 158.092 126.067Z" fill="black"/>
<path d="M173.488 127.255H172.28L171.884 126.088H169.759L169.342 127.255H168.176L170.28 121.609H171.405L173.488 127.255ZM171.509 125.025L170.822 123.046L170.134 125.025H171.509Z" fill="black"/>
<path d="M180.632 127.255L179.486 125.213H178.736V127.255H177.59V121.609H179.882C180.241 121.609 180.569 121.692 180.861 121.859C181.152 122.015 181.382 122.229 181.548 122.505C181.715 122.77 181.798 123.083 181.798 123.442C181.798 123.791 181.694 124.109 181.486 124.4C181.277 124.692 180.991 124.911 180.632 125.046L181.944 127.255H180.632ZM178.736 122.713V124.171H179.84C180.074 124.171 180.262 124.104 180.402 123.963C180.553 123.827 180.632 123.65 180.632 123.442C180.632 123.223 180.553 123.046 180.402 122.921C180.262 122.786 180.074 122.713 179.84 122.713H178.736Z" fill="black"/>
<path d="M188.837 124.275H191.4V127.255H190.733L190.525 126.505C190.358 126.744 190.113 126.942 189.796 127.109C189.488 127.275 189.15 127.359 188.775 127.359C188.275 127.359 187.806 127.229 187.379 126.963C186.962 126.702 186.629 126.348 186.379 125.9C186.129 125.458 186.004 124.973 186.004 124.442C186.004 123.9 186.129 123.411 186.379 122.963C186.629 122.52 186.962 122.166 187.379 121.9C187.806 121.64 188.275 121.505 188.775 121.505C189.217 121.505 189.618 121.604 189.983 121.796C190.358 121.979 190.655 122.223 190.879 122.525C191.113 122.833 191.264 123.145 191.337 123.463H190.129C190.046 123.244 189.884 123.046 189.65 122.88C189.41 122.702 189.118 122.609 188.775 122.609C188.483 122.609 188.212 122.692 187.962 122.859C187.712 123.015 187.509 123.229 187.358 123.505C187.217 123.786 187.15 124.098 187.15 124.442C187.15 124.775 187.217 125.083 187.358 125.359C187.509 125.64 187.712 125.859 187.962 126.025C188.212 126.182 188.483 126.255 188.775 126.255C189.16 126.255 189.473 126.15 189.712 125.942C189.962 125.734 190.118 125.505 190.191 125.255H188.837V124.275Z" fill="black"/>
<path d="M197.202 124.9V126.15H199.994V127.255H196.057V121.609H199.911V122.713H197.202V123.838H199.619V124.9H197.202Z" fill="black"/>
<path d="M208.002 125.296V121.609H209.127V127.255H208.064L205.544 123.567V127.255H204.439V121.609H205.502L208.002 125.296Z" fill="black"/>
<path d="M216.155 127.255H215.009V122.734H213.363V121.609H217.801V122.734H216.155V127.255Z" fill="black"/>
<path d="M223.197 127.255H222.051V121.609H223.197V127.255Z" fill="black"/>
<path d="M231.473 125.296V121.609H232.598V127.255H231.535L229.014 123.567V127.255H227.91V121.609H228.973L231.473 125.296Z" fill="black"/>
<path d="M242 127.255H240.792L240.396 126.088H238.271L237.854 127.255H236.688L238.792 121.609H239.917L242 127.255ZM240.021 125.025L239.333 123.046L238.646 125.025H240.021Z" fill="black"/>
</svg>
