<svg width="29" height="32" viewBox="0 0 29 32" fill="none" xmlns="http://www.w3.org/2000/svg">
<path d="M14.5 0C13.3811 0 12.1498 0.332308 11.101 0.653538C10.0727 0.971077 9.31746 1.29846 9.28846 1.30708H9.25221L5.77704 2.50092L5.66346 2.53785C5.51052 2.58182 5.35971 2.63316 5.21154 2.69169L4.83333 2.80862V2.848C3.82317 3.28985 2.24146 4.24615 1.32192 6.23262C0.0712916 8.92308 0 12.2683 0 12.2683V14.7692H4.83333V32H24.1667V14.7692H29V12.192C29 12.192 28.8961 11.1495 28.6979 9.88431C28.4998 8.62031 28.2967 7.22585 27.6032 6.11569C26.7646 4.75245 25.5764 3.64849 24.1667 2.92308V2.80738L23.6761 2.65354C23.6048 2.62031 23.6193 2.64 23.5625 2.61538L23.3353 2.53785L19.749 1.30708H19.7103C19.6825 1.29846 18.9273 0.971077 17.8978 0.654769C16.8502 0.332308 15.6201 0 14.5 0ZM14.5 2.46154C15.0244 2.46154 16.2231 2.74462 17.1813 3.03877C17.4314 3.11508 17.4169 3.12 17.6344 3.19262C17.5583 3.30708 17.5015 3.41785 17.4073 3.53846C16.8418 4.25477 16.0479 4.92308 14.5 4.92308C12.9521 4.92308 12.1583 4.25477 11.5928 3.53846C11.4985 3.41785 11.4417 3.30708 11.3656 3.19262C11.5831 3.12 11.5686 3.11508 11.8187 3.03877C12.7769 2.74462 13.9756 2.46154 14.5 2.46154ZM8.98638 3.96185C9.16642 4.31262 9.39721 4.688 9.70413 5.07692C10.2801 5.80603 11.0109 6.39252 11.8416 6.79225C12.6724 7.19198 13.5813 7.39452 14.5 7.38462C16.8031 7.38462 18.4029 6.20677 19.2959 5.07692C19.6028 4.688 19.8336 4.31262 20.0124 3.96185L21.75 4.57723V29.5385H7.25V4.57723L8.98638 3.96185ZM4.83333 5.61477V12.3077H2.41667C2.4215 12.24 2.60517 9.25908 3.51142 7.30708C3.80993 6.64193 4.26378 6.06134 4.83333 5.616V5.61477ZM24.1667 5.808C24.6101 6.18708 25.1007 6.68185 25.5635 7.42277C25.7568 7.73538 26.135 9.11508 26.3187 10.2695C26.4939 11.36 26.5737 12.2117 26.5833 12.3077H24.1667V5.808Z" fill="#2F8083"/>
</svg>
