<svg xmlns="http://www.w3.org/2000/svg" xmlns:xlink="http://www.w3.org/1999/xlink" width="300" zoomAndPan="magnify" viewBox="0 0 224.87999 225" height="300" preserveAspectRatio="xMidYMid meet" version="1.0"><defs><clipPath id="d951dbe11b"><path d="M 65 99 L 224.761719 99 L 224.761719 158 L 65 158 Z M 65 99 " clip-rule="nonzero"/></clipPath></defs><path fill="#cae3e3" d="M 166.40625 126.199219 C 160.488281 122.625 152.738281 122.132812 147.183594 126.25 C 153.609375 113.527344 152.890625 97.484375 145.367188 85.386719 C 141.242188 78.757812 134.902344 73.164062 127.265625 71.53125 C 119.632812 69.898438 110.792969 72.992188 107.089844 79.867188 C 105.261719 72.335938 98.296875 66.347656 90.578125 65.664062 C 82.863281 64.980469 75.152344 68.335938 72.03125 75.429688 C 70.476562 65.851562 65.632812 56.59375 57.78125 50.878906 C 49.9375 45.15625 38.980469 43.457031 30.230469 47.660156 C 21.480469 51.859375 15.851562 62.335938 18.277344 71.734375 C 12.714844 68.574219 5.496094 68.945312 0.0195312 72.15625 L 0.0195312 157.867188 L 179.839844 157.867188 C 180.828125 156.9375 181.640625 155.855469 182.164062 154.550781 C 183.835938 150.382812 181.910156 145.691406 179.753906 141.753906 C 176.441406 135.683594 172.324219 129.773438 166.40625 126.199219 Z M 166.40625 126.199219 " fill-opacity="1" fill-rule="nonzero"/><g clip-path="url(#d951dbe11b)"><path fill="#b8d8d8" d="M 212.695312 132.84375 C 207.371094 131.382812 201.105469 133.546875 198.222656 138.210938 C 202.332031 130.746094 200.769531 120.535156 194.511719 114.710938 C 188.070312 108.726562 177.34375 108.03125 170.183594 113.148438 C 170.007812 106.597656 163.523438 100.933594 157.015625 101.625 C 150.496094 102.328125 145.367188 109.234375 146.582031 115.675781 C 144.367188 109.757812 140.148438 104.464844 134.484375 101.660156 C 128.824219 98.851562 121.714844 98.785156 116.328125 102.105469 C 110.953125 105.429688 107.78125 112.277344 109.386719 118.398438 C 104.707031 112.496094 95.339844 111.007812 89.050781 115.167969 C 82.769531 119.335938 80.484375 128.539062 84.097656 135.152344 C 82.183594 131.652344 73.773438 133.773438 71.40625 135.296875 C 65.101562 139.359375 64.078125 149.378906 67.542969 155.523438 C 67.992188 156.320312 68.457031 157.097656 68.929688 157.855469 L 222.628906 157.855469 C 224.292969 153.78125 224.859375 149.261719 223.855469 144.992188 C 222.527344 139.386719 218.257812 134.375 212.695312 132.84375 Z M 212.695312 132.84375 " fill-opacity="1" fill-rule="nonzero"/></g><path fill="#9cc6c6" d="M 107.046875 135.988281 C 99.03125 128.566406 86.503906 126.75 76.511719 130.96875 C 74.011719 123.976562 66.757812 118.964844 59.328125 119.132812 C 51.828125 119.300781 44.746094 124.726562 42.625 131.921875 C 43.636719 124.617188 38.277344 116.992188 31.066406 115.472656 C 23.847656 113.949219 15.867188 118.761719 13.847656 125.851562 C 10.246094 122.414062 4.894531 121.058594 0.0195312 122.007812 L 0.0195312 157.867188 L 115.839844 157.867188 C 116.074219 149.765625 113.015625 141.507812 107.046875 135.988281 Z M 107.046875 135.988281 " fill-opacity="1" fill-rule="nonzero"/><path fill="#9cc6c6" d="M 34.585938 140.070312 C 34.585938 140.324219 34.535156 140.566406 34.441406 140.800781 C 34.34375 141.03125 34.207031 141.238281 34.027344 141.417969 C 33.847656 141.59375 33.644531 141.730469 33.410156 141.828125 C 33.175781 141.925781 32.933594 141.972656 32.683594 141.972656 C 32.429688 141.972656 32.1875 141.925781 31.953125 141.828125 C 31.722656 141.730469 31.515625 141.59375 31.335938 141.417969 C 31.160156 141.238281 31.023438 141.03125 30.925781 140.800781 C 30.828125 140.566406 30.78125 140.324219 30.78125 140.070312 C 30.78125 139.820312 30.828125 139.578125 30.925781 139.34375 C 31.023438 139.109375 31.160156 138.90625 31.335938 138.726562 C 31.515625 138.546875 31.722656 138.410156 31.953125 138.3125 C 32.1875 138.21875 32.429688 138.167969 32.683594 138.167969 C 32.933594 138.167969 33.175781 138.21875 33.410156 138.3125 C 33.644531 138.410156 33.847656 138.546875 34.027344 138.726562 C 34.207031 138.90625 34.34375 139.109375 34.441406 139.34375 C 34.535156 139.578125 34.585938 139.820312 34.585938 140.070312 Z M 34.585938 140.070312 " fill-opacity="1" fill-rule="nonzero"/><path fill="#9cc6c6" d="M 20.703125 127.949219 C 20.703125 128.203125 20.65625 128.445312 20.558594 128.675781 C 20.460938 128.910156 20.324219 129.117188 20.148438 129.292969 C 19.96875 129.472656 19.761719 129.609375 19.53125 129.707031 C 19.296875 129.804688 19.054688 129.851562 18.800781 129.851562 C 18.550781 129.851562 18.308594 129.804688 18.074219 129.707031 C 17.839844 129.609375 17.636719 129.472656 17.457031 129.292969 C 17.277344 129.117188 17.140625 128.910156 17.046875 128.675781 C 16.949219 128.445312 16.898438 128.203125 16.898438 127.949219 C 16.898438 127.695312 16.949219 127.453125 17.046875 127.222656 C 17.140625 126.988281 17.277344 126.78125 17.457031 126.605469 C 17.636719 126.425781 17.839844 126.289062 18.074219 126.191406 C 18.308594 126.09375 18.550781 126.046875 18.800781 126.046875 C 19.054688 126.046875 19.296875 126.09375 19.53125 126.191406 C 19.761719 126.289062 19.96875 126.425781 20.148438 126.605469 C 20.324219 126.78125 20.460938 126.988281 20.558594 127.222656 C 20.65625 127.453125 20.703125 127.695312 20.703125 127.949219 Z M 20.703125 127.949219 " fill-opacity="1" fill-rule="nonzero"/><path fill="#9cc6c6" d="M 35.929688 121.507812 C 35.929688 121.761719 35.878906 122.003906 35.785156 122.234375 C 35.6875 122.46875 35.550781 122.675781 35.371094 122.851562 C 35.191406 123.03125 34.988281 123.167969 34.753906 123.265625 C 34.523438 123.363281 34.277344 123.410156 34.027344 123.410156 C 33.773438 123.410156 33.53125 123.363281 33.296875 123.265625 C 33.066406 123.167969 32.859375 123.03125 32.683594 122.851562 C 32.503906 122.675781 32.367188 122.46875 32.269531 122.234375 C 32.171875 122.003906 32.125 121.761719 32.125 121.507812 C 32.125 121.253906 32.171875 121.011719 32.269531 120.78125 C 32.367188 120.546875 32.503906 120.339844 32.683594 120.164062 C 32.859375 119.984375 33.066406 119.847656 33.296875 119.75 C 33.53125 119.652344 33.773438 119.605469 34.027344 119.605469 C 34.277344 119.605469 34.523438 119.652344 34.753906 119.75 C 34.988281 119.847656 35.191406 119.984375 35.371094 120.164062 C 35.550781 120.339844 35.6875 120.546875 35.785156 120.78125 C 35.878906 121.011719 35.929688 121.253906 35.929688 121.507812 Z M 35.929688 121.507812 " fill-opacity="1" fill-rule="nonzero"/><path fill="#9cc6c6" d="M 21.71875 133.75 C 21.71875 135.160156 20.578125 136.300781 19.164062 136.300781 C 20.578125 136.300781 21.71875 137.441406 21.71875 138.855469 C 21.71875 137.441406 22.859375 136.300781 24.273438 136.300781 C 22.867188 136.300781 21.71875 135.160156 21.71875 133.75 Z M 21.71875 133.75 " fill-opacity="1" fill-rule="nonzero"/><path fill="#9cc6c6" d="M 33.332031 131.558594 C 31.921875 131.558594 30.78125 130.417969 30.78125 129.003906 C 30.78125 130.417969 29.640625 131.558594 28.226562 131.558594 C 29.640625 131.558594 30.78125 132.699219 30.78125 134.113281 C 30.78125 132.707031 31.921875 131.558594 33.332031 131.558594 Z M 33.332031 131.558594 " fill-opacity="1" fill-rule="nonzero"/><path fill="#9cc6c6" d="M 99.4375 126.714844 C 98.464844 126.714844 97.679688 125.929688 97.679688 124.957031 C 97.679688 125.929688 96.894531 126.714844 95.921875 126.714844 C 96.894531 126.714844 97.679688 127.5 97.679688 128.472656 C 97.679688 127.5 98.464844 126.714844 99.4375 126.714844 Z M 99.4375 126.714844 " fill-opacity="1" fill-rule="nonzero"/><path fill="#9cc6c6" d="M 102.050781 133.824219 C 102.050781 134.144531 101.988281 134.449219 101.867188 134.746094 C 101.746094 135.042969 101.570312 135.300781 101.34375 135.527344 C 101.121094 135.753906 100.859375 135.929688 100.5625 136.050781 C 100.269531 136.171875 99.960938 136.234375 99.640625 136.234375 C 99.320312 136.234375 99.015625 136.171875 98.71875 136.050781 C 98.425781 135.929688 98.164062 135.753906 97.9375 135.527344 C 97.710938 135.300781 97.539062 135.042969 97.414062 134.746094 C 97.292969 134.449219 97.230469 134.144531 97.230469 133.824219 C 97.230469 133.503906 97.292969 133.199219 97.414062 132.902344 C 97.539062 132.605469 97.710938 132.347656 97.9375 132.121094 C 98.164062 131.894531 98.425781 131.71875 98.71875 131.597656 C 99.015625 131.476562 99.320312 131.414062 99.640625 131.414062 C 99.960938 131.414062 100.269531 131.476562 100.5625 131.597656 C 100.859375 131.71875 101.121094 131.894531 101.34375 132.121094 C 101.570312 132.347656 101.746094 132.605469 101.867188 132.902344 C 101.988281 133.199219 102.050781 133.503906 102.050781 133.824219 Z M 102.050781 133.824219 " fill-opacity="1" fill-rule="nonzero"/><path fill="#9cc6c6" d="M 107.875 128.347656 C 107.875 128.808594 107.785156 129.253906 107.609375 129.679688 C 107.433594 130.105469 107.183594 130.484375 106.855469 130.808594 C 106.527344 131.136719 106.152344 131.386719 105.726562 131.5625 C 105.296875 131.742188 104.855469 131.828125 104.390625 131.828125 C 103.929688 131.828125 103.484375 131.742188 103.058594 131.5625 C 102.632812 131.386719 102.257812 131.136719 101.929688 130.808594 C 101.601562 130.484375 101.351562 130.105469 101.175781 129.679688 C 100.996094 129.253906 100.910156 128.808594 100.910156 128.347656 C 100.910156 127.882812 100.996094 127.441406 101.175781 127.011719 C 101.351562 126.585938 101.601562 126.210938 101.929688 125.882812 C 102.257812 125.558594 102.632812 125.304688 103.058594 125.128906 C 103.484375 124.953125 103.929688 124.863281 104.390625 124.863281 C 104.855469 124.863281 105.296875 124.953125 105.726562 125.128906 C 106.152344 125.304688 106.527344 125.558594 106.855469 125.882812 C 107.183594 126.210938 107.433594 126.585938 107.609375 127.011719 C 107.785156 127.441406 107.875 127.882812 107.875 128.347656 Z M 107.875 128.347656 " fill-opacity="1" fill-rule="nonzero"/><path fill="#9cc6c6" d="M 19.164062 75.519531 C 18.195312 75.519531 17.40625 74.734375 17.40625 73.761719 C 17.40625 74.734375 16.621094 75.519531 15.648438 75.519531 C 16.621094 75.519531 17.40625 76.308594 17.40625 77.28125 C 17.414062 76.308594 18.195312 75.519531 19.164062 75.519531 Z M 19.164062 75.519531 " fill-opacity="1" fill-rule="nonzero"/><path fill="#9cc6c6" d="M 30.679688 85.960938 C 30.679688 86.195312 30.632812 86.417969 30.546875 86.632812 C 30.457031 86.851562 30.328125 87.039062 30.164062 87.203125 C 30 87.371094 29.808594 87.496094 29.59375 87.585938 C 29.378906 87.675781 29.152344 87.71875 28.921875 87.71875 C 28.6875 87.71875 28.464844 87.675781 28.246094 87.585938 C 28.03125 87.496094 27.84375 87.371094 27.675781 87.203125 C 27.511719 87.039062 27.386719 86.851562 27.296875 86.632812 C 27.207031 86.417969 27.164062 86.195312 27.164062 85.960938 C 27.164062 85.726562 27.207031 85.503906 27.296875 85.289062 C 27.386719 85.074219 27.511719 84.882812 27.675781 84.71875 C 27.84375 84.554688 28.03125 84.425781 28.246094 84.335938 C 28.464844 84.246094 28.6875 84.203125 28.921875 84.203125 C 29.152344 84.203125 29.378906 84.246094 29.59375 84.335938 C 29.808594 84.425781 30 84.554688 30.164062 84.71875 C 30.328125 84.882812 30.457031 85.074219 30.546875 85.289062 C 30.632812 85.503906 30.679688 85.726562 30.679688 85.960938 Z M 30.679688 85.960938 " fill-opacity="1" fill-rule="nonzero"/><path fill="#9cc6c6" d="M 31.1875 76.570312 C 31.1875 76.804688 31.140625 77.027344 31.050781 77.242188 C 30.964844 77.457031 30.835938 77.648438 30.671875 77.8125 C 30.507812 77.976562 30.316406 78.105469 30.101562 78.195312 C 29.886719 78.285156 29.660156 78.328125 29.429688 78.328125 C 29.195312 78.328125 28.96875 78.285156 28.753906 78.195312 C 28.539062 78.105469 28.351562 77.976562 28.183594 77.8125 C 28.019531 77.648438 27.894531 77.457031 27.804688 77.242188 C 27.714844 77.027344 27.667969 76.804688 27.667969 76.570312 C 27.667969 76.335938 27.714844 76.113281 27.804688 75.898438 C 27.894531 75.679688 28.019531 75.492188 28.183594 75.328125 C 28.351562 75.160156 28.539062 75.035156 28.753906 74.945312 C 28.96875 74.855469 29.195312 74.8125 29.429688 74.8125 C 29.660156 74.8125 29.886719 74.855469 30.101562 74.945312 C 30.316406 75.035156 30.507812 75.160156 30.671875 75.328125 C 30.835938 75.492188 30.964844 75.679688 31.050781 75.898438 C 31.140625 76.113281 31.1875 76.335938 31.1875 76.570312 Z M 31.1875 76.570312 " fill-opacity="1" fill-rule="nonzero"/><path fill="#9cc6c6" d="M 48.886719 99.265625 C 48.886719 100.238281 48.101562 101.023438 47.128906 101.023438 C 48.101562 101.023438 48.886719 101.8125 48.886719 102.785156 C 48.886719 101.8125 49.675781 101.023438 50.644531 101.023438 C 49.675781 101.023438 48.886719 100.238281 48.886719 99.265625 Z M 48.886719 99.265625 " fill-opacity="1" fill-rule="nonzero"/><path fill="#9cc6c6" d="M 22.234375 90.417969 C 22.234375 90.734375 22.171875 91.042969 22.050781 91.339844 C 21.929688 91.632812 21.753906 91.894531 21.527344 92.121094 C 21.300781 92.347656 21.042969 92.519531 20.746094 92.640625 C 20.453125 92.765625 20.144531 92.824219 19.824219 92.824219 C 19.503906 92.824219 19.199219 92.765625 18.902344 92.640625 C 18.609375 92.519531 18.347656 92.347656 18.121094 92.121094 C 17.894531 91.894531 17.722656 91.632812 17.597656 91.339844 C 17.476562 91.042969 17.414062 90.734375 17.414062 90.417969 C 17.414062 90.097656 17.476562 89.789062 17.597656 89.496094 C 17.722656 89.199219 17.894531 88.9375 18.121094 88.710938 C 18.347656 88.488281 18.609375 88.3125 18.902344 88.191406 C 19.199219 88.066406 19.503906 88.007812 19.824219 88.007812 C 20.144531 88.007812 20.453125 88.066406 20.746094 88.191406 C 21.042969 88.3125 21.300781 88.488281 21.527344 88.710938 C 21.753906 88.9375 21.929688 89.199219 22.050781 89.496094 C 22.171875 89.789062 22.234375 90.097656 22.234375 90.417969 Z M 22.234375 90.417969 " fill-opacity="1" fill-rule="nonzero"/><path fill="#9cc6c6" d="M 10.703125 79.003906 C 10.703125 80.921875 9.148438 82.488281 7.222656 82.488281 C 9.140625 82.488281 10.703125 84.042969 10.703125 85.96875 C 10.703125 84.050781 12.257812 82.488281 14.1875 82.488281 C 12.269531 82.488281 10.703125 80.921875 10.703125 79.003906 Z M 10.703125 79.003906 " fill-opacity="1" fill-rule="nonzero"/><path fill="#9cc6c6" d="M 58.492188 109.925781 C 58.3125 109.925781 58.304688 110.207031 58.492188 110.207031 C 58.675781 110.207031 58.675781 109.925781 58.492188 109.925781 Z M 58.492188 109.925781 " fill-opacity="1" fill-rule="nonzero"/><path fill="#9cc6c6" d="M 30.121094 108.9375 L 30.121094 109.164062 C 30.113281 109.285156 30.136719 109.394531 30.199219 109.496094 C 30.230469 109.597656 30.289062 109.691406 30.375 109.765625 C 30.449219 109.851562 30.542969 109.910156 30.644531 109.945312 C 30.746094 109.996094 30.855469 110.019531 30.976562 110.019531 C 31.050781 110.011719 31.128906 110.003906 31.203125 109.984375 C 31.347656 109.945312 31.472656 109.875 31.574219 109.765625 C 31.726562 109.597656 31.820312 109.394531 31.820312 109.164062 L 31.820312 108.9375 C 31.828125 108.820312 31.804688 108.710938 31.746094 108.609375 C 31.710938 108.507812 31.652344 108.414062 31.566406 108.335938 C 31.492188 108.253906 31.398438 108.195312 31.296875 108.160156 C 31.195312 108.109375 31.085938 108.082031 30.964844 108.082031 C 30.890625 108.09375 30.8125 108.101562 30.738281 108.117188 C 30.59375 108.160156 30.46875 108.226562 30.367188 108.335938 C 30.214844 108.507812 30.121094 108.710938 30.121094 108.9375 Z M 30.121094 108.9375 " fill-opacity="1" fill-rule="nonzero"/><path fill="#9cc6c6" d="M 75.195312 138.101562 C 74.753906 138.101562 74.324219 138.492188 74.347656 138.945312 C 74.367188 139.402344 74.722656 139.792969 75.195312 139.792969 C 75.632812 139.792969 76.066406 139.402344 76.039062 138.945312 C 76.015625 138.492188 75.667969 138.101562 75.195312 138.101562 Z M 75.195312 138.101562 " fill-opacity="1" fill-rule="nonzero"/><path fill="#9cc6c6" d="M 91.660156 141.035156 C 91.222656 141.035156 90.789062 141.421875 90.816406 141.878906 C 90.832031 142.335938 91.1875 142.726562 91.660156 142.726562 C 92.101562 142.726562 92.53125 142.335938 92.507812 141.878906 C 92.488281 141.421875 92.136719 141.035156 91.660156 141.035156 Z M 91.660156 141.035156 " fill-opacity="1" fill-rule="nonzero"/><path fill="#9cc6c6" d="M 105.878906 111.59375 C 106.320312 111.59375 106.75 111.203125 106.726562 110.746094 C 106.707031 110.289062 106.355469 109.902344 105.878906 109.902344 C 105.441406 109.902344 105.007812 110.289062 105.035156 110.746094 C 105.050781 111.203125 105.40625 111.59375 105.878906 111.59375 Z M 105.878906 111.59375 " fill-opacity="1" fill-rule="nonzero"/><path fill="#9cc6c6" d="M 135.71875 140.105469 C 135.617188 139.925781 135.417969 139.757812 135.214844 139.714844 C 134.757812 139.613281 134.308594 139.851562 134.171875 140.308594 C 134.082031 140.613281 134.132812 140.949219 134.285156 141.222656 C 134.4375 141.5 134.6875 141.6875 134.992188 141.777344 C 135.195312 141.847656 135.46875 141.796875 135.644531 141.695312 C 135.820312 141.59375 135.992188 141.390625 136.035156 141.1875 C 136.101562 140.882812 136.015625 140.585938 135.820312 140.382812 C 135.804688 140.28125 135.769531 140.191406 135.71875 140.105469 Z M 135.71875 140.105469 " fill-opacity="1" fill-rule="nonzero"/><path fill="#9cc6c6" d="M 146.640625 134.964844 C 146.472656 134.8125 146.269531 134.71875 146.042969 134.71875 L 145.8125 134.71875 C 145.695312 134.710938 145.585938 134.738281 145.484375 134.796875 C 145.382812 134.832031 145.289062 134.890625 145.214844 134.972656 C 145.128906 135.050781 145.070312 135.144531 145.035156 135.246094 C 144.984375 135.347656 144.960938 135.457031 144.960938 135.574219 C 144.96875 135.648438 144.976562 135.726562 144.992188 135.800781 C 145.035156 135.945312 145.105469 136.074219 145.214844 136.175781 C 145.382812 136.328125 145.585938 136.417969 145.8125 136.417969 L 146.042969 136.417969 C 146.160156 136.429688 146.269531 136.402344 146.371094 136.34375 C 146.472656 136.308594 146.566406 136.25 146.640625 136.164062 C 146.726562 136.089844 146.785156 135.996094 146.820312 135.894531 C 146.871094 135.792969 146.894531 135.683594 146.894531 135.566406 C 146.886719 135.488281 146.878906 135.414062 146.863281 135.335938 C 146.820312 135.195312 146.742188 135.074219 146.640625 134.964844 Z M 146.640625 134.964844 " fill-opacity="1" fill-rule="nonzero"/><path fill="#9cc6c6" d="M 157.773438 130.652344 C 157.335938 130.652344 156.90625 131.042969 156.929688 131.5 C 156.945312 131.957031 157.300781 132.34375 157.773438 132.34375 C 158.214844 132.34375 158.644531 131.957031 158.621094 131.5 C 158.605469 131.042969 158.25 130.652344 157.773438 130.652344 Z M 157.773438 130.652344 " fill-opacity="1" fill-rule="nonzero"/><path fill="#9cc6c6" d="M 39.539062 79.039062 C 38.8125 79.039062 38.8125 80.164062 39.539062 80.164062 C 40.265625 80.171875 40.265625 79.039062 39.539062 79.039062 Z M 39.539062 79.039062 " fill-opacity="1" fill-rule="nonzero"/><path fill="#9cc6c6" d="M 31.871094 70.695312 C 31.144531 70.695312 31.144531 71.820312 31.871094 71.820312 C 32.589844 71.820312 32.597656 70.695312 31.871094 70.695312 Z M 31.871094 70.695312 " fill-opacity="1" fill-rule="nonzero"/><path fill="#9cc6c6" d="M 7.273438 108.152344 C 6.96875 108.167969 6.707031 108.398438 6.707031 108.71875 L 6.707031 109.164062 C 6.707031 109.460938 6.96875 109.742188 7.273438 109.730469 C 7.574219 109.714844 7.839844 109.488281 7.839844 109.164062 L 7.839844 108.71875 C 7.839844 108.421875 7.574219 108.132812 7.273438 108.152344 Z M 7.273438 108.152344 " fill-opacity="1" fill-rule="nonzero"/><path fill="#9cc6c6" d="M 6.59375 124.171875 C 5.867188 124.171875 5.867188 125.292969 6.59375 125.292969 C 7.324219 125.292969 7.324219 124.171875 6.59375 124.171875 Z M 6.59375 124.171875 " fill-opacity="1" fill-rule="nonzero"/><path fill="#9cc6c6" d="M 6.824219 136.808594 C 6.679688 136.816406 6.527344 136.859375 6.425781 136.976562 C 6.324219 137.085938 6.257812 137.222656 6.257812 137.375 L 6.257812 137.601562 C 6.257812 137.746094 6.316406 137.898438 6.425781 138 C 6.527344 138.101562 6.6875 138.167969 6.824219 138.167969 C 6.96875 138.160156 7.121094 138.117188 7.222656 138 C 7.324219 137.890625 7.390625 137.753906 7.390625 137.601562 L 7.390625 137.375 C 7.390625 137.230469 7.332031 137.078125 7.222656 136.976562 C 7.121094 136.875 6.960938 136.800781 6.824219 136.808594 Z M 6.824219 136.808594 " fill-opacity="1" fill-rule="nonzero"/><path fill="#9cc6c6" d="M 65.261719 116.953125 C 64.535156 116.953125 64.535156 118.074219 65.261719 118.074219 C 65.988281 118.074219 65.988281 116.953125 65.261719 116.953125 Z M 65.261719 116.953125 " fill-opacity="1" fill-rule="nonzero"/><path fill="#9cc6c6" d="M 59.625 146.285156 C 59.480469 146.292969 59.328125 146.335938 59.226562 146.453125 C 59.125 146.5625 59.058594 146.699219 59.058594 146.851562 L 59.058594 147.078125 C 59.058594 147.222656 59.117188 147.375 59.226562 147.476562 C 59.328125 147.578125 59.488281 147.644531 59.625 147.644531 C 59.765625 147.636719 59.917969 147.59375 60.019531 147.476562 C 60.121094 147.367188 60.191406 147.230469 60.191406 147.078125 L 60.191406 146.851562 C 60.191406 146.707031 60.128906 146.554688 60.019531 146.453125 C 59.917969 146.351562 59.757812 146.277344 59.625 146.285156 Z M 59.625 146.285156 " fill-opacity="1" fill-rule="nonzero"/><path fill="#9cc6c6" d="M 79.480469 93.257812 C 78.753906 93.257812 78.753906 94.382812 79.480469 94.382812 C 80.207031 94.382812 80.207031 93.257812 79.480469 93.257812 Z M 79.480469 93.257812 " fill-opacity="1" fill-rule="nonzero"/><path fill="#9cc6c6" d="M 115.804688 143.351562 C 115.078125 143.351562 115.078125 144.476562 115.804688 144.476562 C 116.53125 144.476562 116.53125 143.351562 115.804688 143.351562 Z M 115.804688 143.351562 " fill-opacity="1" fill-rule="nonzero"/><path fill="#9cc6c6" d="M 146.71875 110.628906 L 146.488281 110.628906 C 146.347656 110.628906 146.195312 110.6875 146.09375 110.796875 C 145.992188 110.898438 145.921875 111.058594 145.921875 111.195312 C 145.933594 111.339844 145.972656 111.492188 146.09375 111.59375 C 146.203125 111.691406 146.339844 111.761719 146.488281 111.761719 L 146.71875 111.761719 C 146.863281 111.761719 147.015625 111.703125 147.117188 111.59375 C 147.21875 111.492188 147.285156 111.328125 147.285156 111.195312 C 147.277344 111.050781 147.234375 110.898438 147.117188 110.796875 C 147.003906 110.695312 146.871094 110.628906 146.71875 110.628906 Z M 146.71875 110.628906 " fill-opacity="1" fill-rule="nonzero"/><path fill="#9cc6c6" d="M 156.878906 113.339844 C 156.152344 113.339844 156.152344 114.464844 156.878906 114.464844 C 157.597656 114.464844 157.605469 113.339844 156.878906 113.339844 Z M 156.878906 113.339844 " fill-opacity="1" fill-rule="nonzero"/></svg>