<svg width="31" height="31" viewBox="0 0 31 31" fill="none" xmlns="http://www.w3.org/2000/svg">
<path fill-rule="evenodd" clip-rule="evenodd" d="M21.138 11.2731C21.138 12.7679 20.5441 14.2016 19.4871 15.2586C18.4301 16.3156 16.9965 16.9094 15.5016 16.9094C14.0067 16.9094 12.5731 16.3156 11.5161 15.2586C10.4591 14.2016 9.86523 12.7679 9.86523 11.2731C9.86523 9.77823 10.4591 8.34459 11.5161 7.28757C12.5731 6.23055 14.0067 5.63672 15.5016 5.63672C16.9965 5.63672 18.4301 6.23055 19.4871 7.28757C20.5441 8.34459 21.138 9.77823 21.138 11.2731ZM18.3198 11.2731C18.3198 12.0205 18.0229 12.7373 17.4944 13.2658C16.9658 13.7943 16.249 14.0913 15.5016 14.0913C14.7542 14.0913 14.0374 13.7943 13.5088 13.2658C12.9803 12.7373 12.6834 12.0205 12.6834 11.2731C12.6834 10.5257 12.9803 9.80884 13.5088 9.28033C14.0374 8.75182 14.7542 8.4549 15.5016 8.4549C16.249 8.4549 16.9658 8.75182 17.4944 9.28033C18.0229 9.80884 18.3198 10.5257 18.3198 11.2731Z" fill="#2F8083"/>
<path fill-rule="evenodd" clip-rule="evenodd" d="M15.5 0C6.93977 0 0 6.93977 0 15.5C0 24.0602 6.93977 31 15.5 31C24.0602 31 31 24.0602 31 15.5C31 6.93977 24.0602 0 15.5 0ZM2.81818 15.5C2.81818 18.445 3.82286 21.1561 5.50673 23.3092C6.68928 21.7562 8.21486 20.4977 9.96429 19.6319C11.7137 18.7661 13.6396 18.3165 15.5916 18.3182C17.5183 18.3164 19.42 18.7543 21.1518 19.5987C22.8836 20.4431 24.3998 21.6717 25.5849 23.1908C26.8058 21.5895 27.6278 19.7205 27.983 17.7385C28.3382 15.7564 28.2162 13.7183 27.6273 11.7927C27.0384 9.86707 25.9994 8.10939 24.5964 6.66505C23.1933 5.22072 21.4664 4.13126 19.5587 3.48681C17.651 2.84236 15.6172 2.66145 13.6257 2.95905C11.6342 3.25665 9.74216 4.02421 8.10617 5.19821C6.47019 6.37221 5.13728 7.91891 4.21773 9.71032C3.29818 11.5017 2.81844 13.4864 2.81818 15.5ZM15.5 28.1818C12.5887 28.1862 9.76538 27.1847 7.50764 25.3467C8.4164 24.0458 9.62598 22.9836 11.0335 22.2505C12.4409 21.5175 14.0047 21.1352 15.5916 21.1364C17.1587 21.1351 18.7036 21.5078 20.0978 22.2234C21.492 22.939 22.6953 23.9769 23.6079 25.2509C21.3326 27.1485 18.4627 28.186 15.5 28.1818Z" fill="#2F8083"/>
</svg>
