<svg width="37" height="33" viewBox="0 0 37 33" fill="none" xmlns="http://www.w3.org/2000/svg">
<path d="M15.8615 18.6762C16.6679 18.1521 17.6091 17.873 18.5709 17.873C19.5327 17.873 20.4738 18.1521 21.2803 18.6762L34.1643 27.0505C34.5527 27.3029 34.849 27.6741 35.0092 28.1088C35.1694 28.5434 35.1848 29.0182 35.0532 29.4623C34.9215 29.9064 34.6499 30.2961 34.2787 30.5732C33.9076 30.8504 33.4568 31.0001 32.9936 31.0002H4.14821C3.685 31.0001 3.2342 30.8504 2.86304 30.5732C2.49188 30.2961 2.22023 29.9064 2.08859 29.4623C1.95694 29.0182 1.97236 28.5434 2.13255 28.1088C2.29273 27.6741 2.5891 27.3029 2.97746 27.0505L15.8615 18.6762Z" stroke="#2F8083" stroke-width="2.5" stroke-linecap="round" stroke-linejoin="round"/>
<path d="M18.5729 16.914C18.5729 16.914 23.5442 9.71717 23.5442 6.97134C23.5442 5.65286 23.0205 4.38838 22.0882 3.45607C21.1559 2.52376 19.8914 2 18.5729 2C17.2544 2 15.9899 2.52376 15.0576 3.45607C14.1253 4.38838 13.6016 5.65286 13.6016 6.97134" stroke="#2F8083" stroke-width="2.5" stroke-linecap="round" stroke-linejoin="round"/>
</svg>
