<svg width="36" height="33" viewBox="0 0 36 33" fill="none" xmlns="http://www.w3.org/2000/svg">
<path d="M5.42773 13.7129V30.57C5.42773 30.8731 5.54814 31.1638 5.76247 31.3782C5.9768 31.5925 6.26749 31.7129 6.57059 31.7129H13.4277V21.9986C13.4277 21.5439 13.6083 21.1079 13.9298 20.7864C14.2513 20.4649 14.6874 20.2843 15.142 20.2843H20.8563C21.311 20.2843 21.747 20.4649 22.0685 20.7864C22.39 21.1079 22.5706 21.5439 22.5706 21.9986V31.7129H29.4277C29.7308 31.7129 30.0215 31.5925 30.2359 31.3782C30.4502 31.1638 30.5706 30.8731 30.5706 30.57V13.7129" fill="#FFE09F"/>
<path d="M5.42773 13.7129V30.57C5.42773 30.8731 5.54814 31.1638 5.76247 31.3782C5.9768 31.5925 6.26749 31.7129 6.57059 31.7129H13.4277V21.9986C13.4277 21.5439 13.6083 21.1079 13.9298 20.7864C14.2513 20.4649 14.6874 20.2843 15.142 20.2843H20.8563C21.311 20.2843 21.747 20.4649 22.0685 20.7864C22.39 21.1079 22.5706 21.5439 22.5706 21.9986V31.7129H29.4277C29.7308 31.7129 30.0215 31.5925 30.2359 31.3782C30.4502 31.1638 30.5706 30.8731 30.5706 30.57V13.7129" stroke="#2F8083" stroke-width="2.5" stroke-linecap="round" stroke-linejoin="round"/>
<path d="M34 16.8559L18.7779 2.28447C18.4207 1.90732 17.5857 1.90304 17.2221 2.28447L2 16.8559M28.2857 11.3559V3.14161H24.8571V8.07018" fill="#FFE09F"/>
<path d="M34 16.8559L18.7779 2.28447C18.4207 1.90732 17.5857 1.90304 17.2221 2.28447L2 16.8559M28.2857 11.3559V3.14161H24.8571V8.07018" stroke="#2F8083" stroke-width="2.5" stroke-linecap="round" stroke-linejoin="round"/>
</svg>
