<svg xmlns="http://www.w3.org/2000/svg" viewBox="0 0 163.31 33.03"><defs><style>.cls-1{fill:#fdd37c;}.cls-2{fill:#7abec1;}.cls-3{fill:#fefefe;}</style></defs><g id="Capa_2" data-name="Capa 2"><g id="Capa_3" data-name="Capa 3"><path class="cls-1" d="M133.35,4.35c3-1.81,6.47-1.31,9.73-1.72,4.57-.58,9.19-.84,13.79-1.09,3-.16,4.35,1.08,4.64,4,.64,6.54,1.31,13.09,1.78,19.65.23,3.17-1.39,4.74-4.52,5-6.33.58-12.66,1.1-19,1.81a5.57,5.57,0,0,1-5.52-2.31c-.66-6.59-1.34-13.17-2-19.76C132.13,8,132.1,6.07,133.35,4.35Zm16.78,3.51c-3.51,0-5.74,1.31-8.17,4.81-2.86,4.14-2.41,10,1.13,12.87a11.37,11.37,0,0,0,14.46.23c.84-.68,1.55-1.51.78-2.74s-1.71-.93-2.78-.57a30.48,30.48,0,0,1-4.35,1.28c-4.26.77-7.61-2.59-6.61-6.76,1-4.33,3.63-6.31,8.42-5.26.8.17,1.58.37,2-.53s-.22-1.49-.8-2A5.65,5.65,0,0,0,150.13,7.86Z"/><path class="cls-1" d="M28.83,4.51c5.5-1.77,11.27-2.24,16.89-3.43C47.27.75,48.84.45,50.4.19c3.7-.62,5.36.5,6.21,4.15.12.52.3,1,.44,1.53,0,4.52-.94,9-1.26,13.44-.21,3-1.44,6.08-.06,9.13L39,31.65c-.74.14-1.48.33-2.23.43-3,.37-4.26-.36-5.84-3.22-.84-4.88-1.79-9.75-2.49-14.66C28,11,26.07,7.63,28.83,4.51Zm15,21.66a5.34,5.34,0,0,0,3.39-1.05c1.28-.77,3-1.53,2.35-3.38s-2.42-1-3.77-.65c-1.56.37-2.35,0-2.57-1.78-.42-3.45-1.16-6.87-1.7-10.31-.19-1.2-.4-2.39-1.89-2.35s-1.29,1.26-1.41,2.22a47,47,0,0,0,.8,14C39.4,25.16,41.08,26.16,43.81,26.17Z"/><path class="cls-2" d="M28.83,4.51C26.07,7.63,28,11,28.46,14.2c.7,4.91,1.65,9.78,2.49,14.66-1.33,2.2-3.5,2.3-5.74,2.48C19,31.83,12.82,32.53,6.62,33c-3,.22-4.59-1.52-4.85-4.46Q1,19.23,0,10C-.3,6.44,1.34,4.55,4.88,4.25,10.92,3.74,17,3.12,23,2.55,25.23,2.34,27.47,2.1,28.83,4.51Zm-13.94,24A8.16,8.16,0,0,0,21,26.42c.63-.59,1.13-1.3.69-2.21s-1.34-.93-2.18-.76c-1.19.24-2.34.63-3.53.87-1,.19-1.88.12-1.88-1.23,0-1.06-.56-2.33,1.37-2.46a21.22,21.22,0,0,0,4.2-.88,1.53,1.53,0,0,0,1.29-1.85c-.21-1-1-1.19-1.9-1.27a12.62,12.62,0,0,0-3.8.64c-.56.12-1.13.52-1.52-.34a2.41,2.41,0,0,1,2.19-3.62A17.39,17.39,0,0,0,19,12.83a2.09,2.09,0,0,0,1.74-2.11A1.87,1.87,0,0,0,19,8.89a16.31,16.31,0,0,0-7.51,1.47c-2.06.8-1.17,2.8-1.28,4.21C10,17.8,9.32,21,10,24.3,10.6,27.36,11.85,28.48,14.89,28.49Z"/><path class="cls-1" d="M106.21,28.87c-5.72,1.07-11.43,2.18-17.15,3.22A5.18,5.18,0,0,1,84,30.2c-1.25-6.72-2.35-13.47-3.81-20.14a5.38,5.38,0,0,1,2.38-6.2C89.08,2.68,95.61,1.53,102.13.3c3.82-.72,5.13-.26,6.61,2.55a28.65,28.65,0,0,0-1,3.7c-.82,5.61-1.6,11.22-2.27,16.84C105.22,25.24,104.88,27.2,106.21,28.87ZM90.39,10.56l-.17,0c.33,2.92.73,5.85,1,8.78.2,2.26.46,4.57,2.8,5.56a6.5,6.5,0,0,0,6.81-1.22c1-.76,2.2-1.5,1.51-2.91s-2.15-1.05-3.41-.68c-2.56.73-2.69.57-3.17-2.07-.65-3.49-1.43-6.95-2.16-10.43C93.4,6.7,93,6,91.92,6.11a1.67,1.67,0,0,0-1.51,1.72C90.33,8.73,90.39,9.65,90.39,10.56Z"/><path class="cls-2" d="M106.21,28.87c-1.33-1.67-1-3.63-.77-5.48.67-5.62,1.45-11.23,2.27-16.84a28.65,28.65,0,0,1,1-3.7c2.6-2,5.49-1.08,8.28-.73,5.45.7,10.89,1.48,16.33,2.23-1.25,1.72-1.22,3.69-1,5.65.62,6.59,1.3,13.17,2,19.76-.87,2.48-2.22,3.53-4.76,3.22-6.91-.85-13.81-1.82-20.71-2.77A5.09,5.09,0,0,1,106.21,28.87Zm24.25-4.79a50.19,50.19,0,0,0-3.83-12.72c-1.39-3.38-3.52-3.84-6-1-3.3,3.81-5.53,8.33-7.73,12.83a1.61,1.61,0,0,0,.55,2.21c.91.66,1.55.07,2.15-.56a2.74,2.74,0,0,0,.58-.7c1.09-2.39,3-2.43,5.16-1.89a21.08,21.08,0,0,0,2.25.36c1.45.21,2.55.74,2.73,2.44a2,2,0,0,0,2.26,2C130.16,26.89,130.5,25.75,130.46,24.08Z"/><path class="cls-2" d="M82.55,3.86a5.38,5.38,0,0,0-2.38,6.2C81.63,16.73,82.73,23.48,84,30.2c-1.32,2-3.1,2.48-5.5,2.15-6.07-.84-12.17-1.46-18.28-2a6.81,6.81,0,0,1-4.47-1.89c-1.38-3.05-.15-6.1.06-9.13.32-4.48,1.22-8.92,1.26-13.44,1.23-3.75,2.18-4.64,5.75-4.3C69.4,2.21,76,3.09,82.55,3.86Zm-4,10.59c0-4.82-3.72-7.55-8.76-6.44-.71.16-1.41.74-2.16.21-2.11-1.51-2.69-.14-2.92,1.6-.66,5,0,10-1.23,14.94a1.45,1.45,0,0,0,1.24,1.85,1.87,1.87,0,0,0,2.31-1,3.19,3.19,0,0,0,.44-1.51c-.24-2.48.74-2.87,3.13-2.63A6.94,6.94,0,0,0,78.51,14.45Z"/><path class="cls-3" d="M150.13,7.86a5.65,5.65,0,0,1,4,1.36c.58.48,1.14,1.15.8,2s-1.15.7-2,.53c-4.79-1.05-7.39.93-8.42,5.26-1,4.17,2.35,7.53,6.61,6.76a30.48,30.48,0,0,0,4.35-1.28c1.07-.36,2-.64,2.78.57s.06,2.06-.78,2.74a11.37,11.37,0,0,1-14.46-.23c-3.54-2.84-4-8.73-1.13-12.87C144.39,9.17,146.62,7.82,150.13,7.86Z"/><path class="cls-3" d="M43.81,26.17c-2.73,0-4.41-1-4.8-3.3a47,47,0,0,1-.8-14c.12-1,0-2.19,1.41-2.22S41.32,7.8,41.51,9c.54,3.44,1.28,6.86,1.7,10.31.22,1.82,1,2.15,2.57,1.78,1.35-.33,3.06-1.2,3.77.65s-1.07,2.61-2.35,3.38A5.34,5.34,0,0,1,43.81,26.17Z"/><path class="cls-3" d="M14.89,28.49c-3,0-4.29-1.13-4.91-4.19-.66-3.27,0-6.5.27-9.73.11-1.41-.78-3.41,1.28-4.21A16.31,16.31,0,0,1,19,8.89a1.87,1.87,0,0,1,1.74,1.83A2.09,2.09,0,0,1,19,12.83a17.39,17.39,0,0,1-3.14.48,2.41,2.41,0,0,0-2.19,3.62c.39.86,1,.46,1.52.34a12.62,12.62,0,0,1,3.8-.64c.87.08,1.69.25,1.9,1.27a1.53,1.53,0,0,1-1.29,1.85,21.22,21.22,0,0,1-4.2.88c-1.93.13-1.36,1.4-1.37,2.46,0,1.35.91,1.42,1.88,1.23,1.19-.24,2.34-.63,3.53-.87.84-.17,1.73-.17,2.18.76s-.06,1.62-.69,2.21A8.16,8.16,0,0,1,14.89,28.49Z"/><path class="cls-3" d="M90.39,10.56c0-.91-.06-1.83,0-2.73a1.67,1.67,0,0,1,1.51-1.72c1-.1,1.48.59,1.67,1.5.73,3.48,1.51,6.94,2.16,10.43.48,2.64.61,2.8,3.17,2.07,1.26-.37,2.68-.83,3.41.68s-.55,2.15-1.51,2.91A6.5,6.5,0,0,1,94,24.92c-2.34-1-2.6-3.3-2.8-5.56-.26-2.93-.66-5.86-1-8.78Z"/><path class="cls-3" d="M130.46,24.08c0,1.67-.3,2.81-1.85,3a2,2,0,0,1-2.26-2c-.18-1.7-1.28-2.23-2.73-2.44a21.08,21.08,0,0,1-2.25-.36c-2.16-.54-4.07-.5-5.16,1.89a2.74,2.74,0,0,1-.58.7c-.6.63-1.24,1.22-2.15.56a1.61,1.61,0,0,1-.55-2.21c2.2-4.5,4.43-9,7.73-12.83,2.45-2.81,4.58-2.35,6,1A50.19,50.19,0,0,1,130.46,24.08Zm-7.4-10.6c-1,.81-1.26,2-1.86,3.05s-.34,1.41.77,1.47c.89,0,2,.81,2.59.16s-.22-1.64-.48-2.45S123.81,14.07,123.06,13.48Z"/><path class="cls-3" d="M78.51,14.45a6.94,6.94,0,0,1-8,7.05c-2.39-.24-3.37.15-3.13,2.63A3.19,3.19,0,0,1,67,25.64a1.87,1.87,0,0,1-2.31,1,1.45,1.45,0,0,1-1.24-1.85c1.19-4.92.57-10,1.23-14.94.23-1.74.81-3.11,2.92-1.6.75.53,1.45-.05,2.16-.21C74.79,6.9,78.5,9.63,78.51,14.45Zm-8.78,3c2.35,0,4.56-1.65,4.45-3.39A2,2,0,0,0,72,12c-1.91,0-4,2.45-3.89,4.56C68.18,17.86,69.17,17.32,69.73,17.49Z"/><path class="cls-2" d="M123.06,13.48c.75.59.79,1.47,1,2.23s1.11,1.8.48,2.45S122.86,18,122,18c-1.11-.06-1.3-.59-.77-1.47S122.06,14.29,123.06,13.48Z"/><path class="cls-2" d="M69.73,17.49c-.56-.17-1.55.37-1.61-.91C68,14.47,70.1,12,72,12a2,2,0,0,1,2.17,2.08C74.29,15.84,72.08,17.49,69.73,17.49Z"/></g></g></svg>