<svg xmlns="http://www.w3.org/2000/svg" xmlns:xlink="http://www.w3.org/1999/xlink" viewBox="0 0 1150.36 866.41"><defs><style>.cls-1{fill:none;}.cls-2{fill:#fff;}.cls-3{clip-path:url(#clip-path);}.cls-4{clip-path:url(#clip-path-2);}.cls-5{fill:#d7d3c9;}.cls-6{clip-path:url(#clip-path-5);}.cls-7{fill:#c6b38b;}.cls-8{clip-path:url(#clip-path-9);}.cls-9{fill:#a39c82;}.cls-10{clip-path:url(#clip-path-13);}.cls-11{fill:#bdb195;}.cls-12{clip-path:url(#clip-path-17);}.cls-13{fill:#958b71;}</style><clipPath id="clip-path"><rect class="cls-1" x="338.53" y="95.04" width="456.69" height="546.62"/></clipPath><clipPath id="clip-path-2"><rect class="cls-1" x="333.9" y="95.6" width="466.17" height="683.71" transform="translate(-15.91 21.44) rotate(-2.14)"/></clipPath><clipPath id="clip-path-5"><rect class="cls-1" x="335.89" y="239.63" width="459.33" height="292.7"/></clipPath><clipPath id="clip-path-9"><rect class="cls-1" x="369.39" y="95.04" width="387.04" height="682.39"/></clipPath><clipPath id="clip-path-13"><rect class="cls-1" x="580.98" y="671.63" width="117.26" height="28.21"/></clipPath><clipPath id="clip-path-17"><rect class="cls-1" x="630.36" y="672.51" width="71.41" height="103.15"/></clipPath></defs><g id="Capa_2" data-name="Capa 2"><g id="Capa_1-2" data-name="Capa 1"><path class="cls-2" d="M1147.71,150.73q-.26.59-.54,1.14a34.91,34.91,0,0,1-29.38,19.06c-74.82,4.26-165.53,1.93-240.56-3.39a32.55,32.55,0,0,1-18.62-7.5c-7.26-6.1-13.58-13.17-15.59-22.24-3.32-15,7.61-30.79,22.15-35.6,12-4,25.32-1.37,36.27,5.11.71-22.13,17.06-43.25,38.64-48.76,17.26-4.41,36.39,1.54,49.09,13.87C998,64.73,1008.57,59,1020.07,57c16.1-2.82,34,2.6,43.93,15.62a36,36,0,0,1,5.58,31.25,23.18,23.18,0,0,1,27.21,17,75.75,75.75,0,0,1,29-3.25c7.7.65,15.9,2.85,20.64,9C1151.67,133.29,1151.19,143,1147.71,150.73Z"/><path class="cls-2" d="M528.7,507.56c-.19.42-.39.83-.59,1.24a37.9,37.9,0,0,1-31.9,20.69c-81.21,4.61-179.68,2.09-261.12-3.69a35.29,35.29,0,0,1-20.21-8.13C207,511,200.13,503.37,198,493.53c-3.6-16.25,8.27-33.43,24.06-38.65,13-4.29,27.48-1.49,39.36,5.54.77-24,18.52-46.93,41.95-52.92,18.74-4.79,39.49,1.67,53.28,15.06,9.63-8.35,21.06-14.54,33.54-16.72,17.48-3,37,2.83,47.69,17a39.17,39.17,0,0,1,6.06,33.92,25.17,25.17,0,0,1,29.53,18.43A82.49,82.49,0,0,1,505,471.63c8.35.7,17.26,3.1,22.4,9.72C533,488.63,532.48,499.18,528.7,507.56Z"/><path class="cls-2" d="M1010.51,578.49c-.26.57-.52,1.12-.8,1.67-8.14,16.41-24.8,26.91-43.08,28-109.69,6.23-242.68,2.82-352.68-5a47.57,47.57,0,0,1-27.29-11c-10.65-8.94-19.93-19.31-22.87-32.6-4.87-21.94,11.16-45.15,32.48-52.2,17.57-5.8,37.12-2,53.18,7.48,1-32.44,25-63.39,56.65-71.48,25.31-6.46,53.34,2.26,72,20.34,13-11.28,28.44-19.63,45.3-22.57,23.6-4.12,49.92,3.81,64.41,22.9,9.71,12.82,12.66,30.62,8.18,45.82a34,34,0,0,1,39.88,24.89,111.5,111.5,0,0,1,42.6-4.76c11.29.95,23.31,4.18,30.26,13.13C1016.32,552.92,1015.61,567.18,1010.51,578.49Z"/><g class="cls-3"><g class="cls-4"><g class="cls-4"><g class="cls-4"><path class="cls-5" d="M794,337.91a222.87,222.87,0,0,1-24,81.47.2.2,0,0,1,0,.11l-.09.16q-4.54,8.89-9.91,17.41l-2.84,4.57a.24.24,0,0,0-.06.11l-.09.15L757,442q-11.12,18-20.8,36.52c-.06.1-.11.2-.16.3a484,484,0,0,0-22.44,49.51q-2.67,6.93-5.11,13.85c-.12.33-.23.65-.34,1l-3.91,11.33L701,563.67l-17.87,51.78a23.46,23.46,0,0,1-1.82,4,24.41,24.41,0,0,1-2.52,3.62,25.54,25.54,0,0,1-3.15,3.09,23.69,23.69,0,0,1-3.67,2.45,12.86,12.86,0,0,1-1.34.66c-.48.21-.86.38-1.35.55a22.38,22.38,0,0,1-5.52,1.46l-24.13,3.36-1.36.19-1.36.19-19.63,2.83-1.36.19-1.36.19-21.2,2.94a19,19,0,0,1-9.37-1c-.54-.19-1.07-.41-1.59-.65s-1.09-.54-1.61-.84a19.17,19.17,0,0,1-4.38-3.49l-38.18-40.58-14.73-15.73c-2.23-2.39-4.51-4.75-6.78-7.09s-4.53-4.59-6.82-6.84-4.45-4.37-6.73-6.5q-15.49-14.82-32.38-28.1Q456,518.81,440.38,508.68a234.15,234.15,0,0,1-45.65-38.24l-.12-.13-.08-.11c-23.47-25.49-40.87-56-49.52-89.4a.65.65,0,0,0-.13-.42v-.16q-1.33-5.25-2.39-10.57a202.56,202.56,0,0,1-3.78-39.46l0-1.72c0-.34,0-.68,0-1,0-1.16,0-2.33.08-3.5.11-3.31.28-6.6.53-9.92,0-.81.12-1.62.2-2.42.14-1.63.3-3.25.47-4.87l.28-2.42c.2-1.62.41-3.24.64-4.86l.19-1.37v-.14q1.35-8.94,3.44-17.8l.56-2.41.5-2.07q1.26-5,2.73-10l.68-2.24.33-1.05c.23-.76.46-1.53.72-2.29.15-.46.29-.93.45-1.39.26-.78.52-1.56.79-2.35.53-1.56,1.09-3.12,1.65-4.69l.85-2.34c.29-.78.59-1.54.87-2.31q2.73-6.93,5.81-13.88l1.05-2.26q2.1-4.44,4.4-8.91c.38-.75.76-1.48,1.16-2.22s.78-1.48,1.19-2.2.79-1.48,1.2-2.21.81-1.39,1.28-2.19.83-1.4,1.29-2.18l1.28-2.24c.84-1.4,1.71-2.8,2.58-4.2l.17-.26,1.11-1.83c.44-.7.9-1.4,1.29-2.11l.34-.52,2.44-3.66.5-.72c.68-1,1.3-2,2.07-3s1.17-1.65,1.76-2.47c.87-1.24,1.78-2.48,2.74-3.7l.54-.72c.85-1.13,1.71-2.24,2.61-3.33l.38-.48q1.4-1.75,2.81-3.5l.44-.53c.93-1.14,1.89-2.27,2.84-3.38l.54-.62c.93-1.09,1.88-2.16,2.82-3.22l.12-.15c1.11-1.23,2.2-2.43,3.32-3.63.58-.62,1.16-1.24,1.75-1.85s.92-1,1.39-1.42l.39-.41,1.31-1.42c.05-.05.1-.11.16-.16l.18-.19c.67-.69,1.31-1.41,2-2l1.32-1.34c1.11-1.07,2.23-2.14,3.35-3.18.88-.82,1.76-1.63,2.65-2.43.42-.4.86-.77,1.32-1.16,1.05-.93,2.09-1.85,3.15-2.75s2.36-2,3.56-3c.58-.47,1.15-.94,1.73-1.43,1.33-1.09,2.65-2.14,4-3.18.94-.73,1.9-1.44,2.86-2.17l.56-.42c1.14-.85,2.3-1.68,3.46-2.52l1.85-1.17c.83-.59,1.67-1.16,2.51-1.72l1.33-.94,1.64-1.1,1.68-1.08c1.55-1,3.13-2,4.72-2.91l2-1.19c.44-.28.9-.55,1.34-.81l.23-.13,1.34-.77c1.49-.86,3-1.69,4.49-2.51l2.4-1.38,1.13-.59,1.12-.57.5-.26.3-.14a10.64,10.64,0,0,1,1-.49l.72-.35.51-.26c1.16-.57,2.32-1.13,3.49-1.68l2.92-1.34,2.38-1c1.42-.63,2.86-1.23,4.32-1.83s2.88-1.15,4.34-1.71l1.53-.57,1.54-.58.82-.3.85-.31.34-.11,3.79-1.3c1.42-.47,2.85-.94,4.28-1.37q2.56-.8,5.14-1.56h.19l2.17-.58,1.35-.37.65-.17.8-.21,2.6-.64,2.63-.61c1.73-.39,3.48-.75,5.25-1.11l3.54-.66c.48-.1,1-.18,1.46-.26h.13l2.43-.41.88-.13,3-.44,1.06-.15h.33l2.64-.35,2.22-.24h.52l.75,0,.57,0,1.84-.18h.2c.89,0,1.79-.17,2.73-.23l.95,0,1.53-.05,1.46-.06.63,0,.69,0,3.12-.43,4.1-.15,1,0,2.24,0,1.65-.06c.6,0,1.2,0,1.8,0l2.53,0,2.52.09.51,0,1.89.09,2.82.16.29,0,2.82.21c1.85.14,3.69.3,5.49.5l2.45.27,2.46.3,2.14.27h.3c1.62.22,3.25.48,4.87.73s3.23.55,4.84.84c1.21.22,2.42.46,3.62.7s2.41.49,3.61.76l3.58.82,3.58.88,1.9.48h.42l.43.12,1.13.3,2,.55,1.18.33c1.5.43,3,.88,4.49,1.35l2.53.8,2.33.76,2.57.88,2,.73,1.54.56c.8.28,1.6.58,2.41.89l2.4.92,2.12.83.24.1c1.77.72,3.52,1.44,5.27,2.21.64.28,1.28.54,1.91.83l2.24,1c.75.34,1.5.68,2.23,1l2.08,1,.65.31,3.62,2.09,1.75.9,1.76.9.22.12.9.47,3.43,1.85c1.39.72,2.66,1.49,4,2.24l2.22,1.28,1.4.81,1.72,1,1.3.8,2.14,1.32,2.73,1.73c1.4.88,2.72,1.79,4.06,2.69l2,1.37,2,1.39c1,.73,2.08,1.48,3.11,2.22l.68.5,2.13,1.57c2.81,2.08,5.51,4.2,8.19,6.41l.72.6.83.68c.79.63,1.58,1.31,2.35,2l1.09.95.85.71c.65.54,1.28,1.1,1.92,1.68l1.42,1.31.15.15c.71.63,1.42,1.31,2.14,1.94.48.43.95.88,1.42,1.31.89.83,1.77,1.66,2.62,2.48l1.42,1.4,2,1.93,1.68,1.72c.63.63,1.24,1.26,1.84,1.89s1.14,1.21,1.62,1.7c.94,1,1.88,2,2.85,3l.64.7c1.07,1.18,2.13,2.37,3.16,3.57a1.42,1.42,0,0,1,.2.22q1.57,1.78,3.08,3.62l.2.25c1.16,1.36,2.25,2.71,3.26,4a.53.53,0,0,1,.12.14c1,1.33,2,2.54,3,3.82.22.27.41.53.6.79.83,1.07,1.63,2.15,2.43,3.24l.62.86c1,1.33,1.88,2.67,2.88,4s2,2.89,2.89,4.35l1.45,2.2q5,7.69,9.31,15.75l1.22,2.29q3,5.83,5.75,11.82,1,2.3,2,4.62c.34.79.67,1.59,1,2.39s.65,1.6,1,2.4c.23.58.46,1.14.67,1.72s.49,1.35.73,1.91c.44,1.23.9,2.45,1.32,3.68.28.8.55,1.6.82,2.39s.51,1.51.75,2.28.56,1.74.84,2.7.5,1.63.73,2.46q2.55,8.64,4.31,17.47A197.61,197.61,0,0,1,794,337.91Z"/></g></g></g></g><g class="cls-6"><g class="cls-4"><g class="cls-4"><g class="cls-4"><path class="cls-7" d="M794,337.91c-.71.4-20.54,11.41-42.31-3.5,0,0-32.1,21.41-64.34-6.62,0,0-25.68,20.8-64.05-4.32,0,0-.3.35-.91,1-6.06,6.33-42.35,40.46-101.13,16.7,0,0-40.38,27.18-67.63,5.65-.52.92-21.84,37.28-63.1,20.7,0,0-20.33,36.26-45.48,13.3a.63.63,0,0,0-.12-.42c-1.56-5-15.33-52.76-3.8-82.31,0,0,9.61,7.94,29.51-10.76a14.29,14.29,0,0,0,1.6,1.51c5.77,4.83,27.21,17.9,64.69-13.54,0,0,.31.24.89.61,5.74,3.74,38.11,22.27,69.92-13.53,0,0,50.59,26.24,101.08-11.05,0,0,46.88,24.73,70.38-10.71l.26-.38s37.28,32.42,68.65,1.23h.06s26.68,19.06,34.22,8.82c.44,1.22.89,2.45,1.32,3.68.28.79.55,1.59.82,2.39s.5,1.5.75,2.28.56,1.73.84,2.7.5,1.63.73,2.45q2.55,8.66,4.3,17.47A197.27,197.27,0,0,1,794,337.91Zm-24,81.47s-20.12,17.32-31-3.54c0,0-27.24,29.32-55.85-3.23,0,0-32.55,21-52.19.05,0,0-30.31,34.78-83,15.1,0,0-15.31,29.18-51.6,14.55,0,0-13.83,30.11-57.85,17,0,0-20.65,23-44,10.87,0,0,29.71,36.2,76.18,60.1,0,0,9.8,6.28,12-3.69,0,0,40.3,7.64,45.28-16.86,0,0,32.31,13.81,46.21-12.23,0,0,33.89,20.18,53.53-8.82,0,0,24.94,20.36,46.53-3.54,0,0,21.7,26.8,49.92-4.46,0,0,5.06,10.74,12-2.18S770,419.41,770,419.41Z"/></g></g></g></g><g class="cls-8"><g class="cls-4"><g class="cls-4"><g class="cls-4"><path class="cls-9" d="M680.64,241.19a330.35,330.35,0,0,1,8,87.71c-.11,2.38-.24,4.77-.41,7.17-1.9,27.29-4.06,53.14-6.16,77.25-1.14,13-2.28,25.54-3.36,37.49q-1.68,18.66-3.2,35.76c-2.7,31-4.8,58.41-5.54,82.61a12.1,12.1,0,0,1-1.3-1c-.48.65-1,1.25-1.45,1.83.7-24.38,2.8-52,5.53-83.27q1.5-17.34,3.24-36.22c1-11.4,2.11-23.3,3.2-35.63,2.15-24.66,4.37-51.06,6.32-79q.25-3.57.4-7.1a327.38,327.38,0,0,0-7.83-86.59,399.16,399.16,0,0,0-29.89-85.78q-3-6.13-5.91-11.84c-35.09-17.9-61.09.89-66.4,5.32a682.74,682.74,0,0,1,34.42,102.19,583,583,0,0,1,13.31,71.66c.53,4.35,1,8.73,1.42,13.16,2.69,28.33,3.92,53.89,4.39,77.4.53,26.86.07,51-.36,73.61,0,.61,0,1.23,0,1.85-.58,30.32-1,57.31,1,84-1.17-.68-2.13-1.28-2.8-1.77-1.87-26.41-1.45-52.86-.91-81.27l.05-2.86c.43-21.87.87-45.26.41-71.12-.43-24.12-1.64-50.39-4.43-79.59q-.54-5.76-1.2-11.43a582,582,0,0,0-13.57-73.5A682.22,682.22,0,0,0,573.15,150.1c-37.84-12.14-60.94,7.3-66.85,13.2a688,688,0,0,0,3,99.76,584.45,584.45,0,0,0,13.55,78.7q1.6,6.38,3.33,12.85c7.42,27.29,15.23,51.51,23,73.58,9,25.37,17.95,47.88,26.32,68.88.19.49.39,1,.57,1.46,10.92,27.35,21,52.78,28.73,79.06a18.58,18.58,0,0,1-2.08-2.26,17.34,17.34,0,0,1-.85,1.73c-7.55-25.32-17.41-50.14-28.51-78l-.39-1c-8.32-20.87-17.24-43.22-26.16-68.38-7.89-22.28-15.8-46.76-23.27-74.38q-1.85-6.76-3.46-13.39a590.08,590.08,0,0,1-13.47-78.31,688.25,688.25,0,0,1-3.09-99.15c-32.66-11.49-57.13,7.41-63.39,13-.7,5.48-1.32,11.23-1.83,17.19a402,402,0,0,0,1.15,82.14,338.23,338.23,0,0,0,16.21,71.43q4.73,13.72,11,27.44C477.61,399.48,488.28,422,498.37,443c6.12,12.77,12.05,25,17.67,36.64q7.86,16.21,15,31.16c12.89,26.83,24.1,50.79,33.18,72.44-1.13-.37-1.77-.6-1.77-.6a14.48,14.48,0,0,1-.42,2.44c-9.28-22.19-20.88-46.84-34.21-74.56q-6.87-14.28-14.34-29.7-8.55-17.64-17.88-37c-10.1-20.89-20.71-43.27-31.58-67a306.78,306.78,0,0,1-11.4-28.57,343.43,343.43,0,0,1-16.22-72.68,405.25,405.25,0,0,1-1-81.22c.49-5.72,1.1-11.23,1.76-16.45-13.84-11.4-40.34,4.32-51.62,12q1.29-1.86,2.73-3.7l.54-.72c.85-1.12,1.71-2.24,2.61-3.33l.38-.48c.93-1.17,1.87-2.34,2.81-3.49l.44-.54c.93-1.14,1.89-2.27,2.85-3.38l.53-.62c.93-1.09,1.88-2.16,2.82-3.22l.12-.14c1.11-1.23,2.2-2.43,3.32-3.64.58-.62,1.16-1.24,1.75-1.85s.92-1,1.39-1.42l.35-.42,1.31-1.42c.05-.05.1-.11.16-.16l.18-.19c.67-.69,1.31-1.41,2-2l1.32-1.34c1.11-1.07,2.23-2.14,3.35-3.18.88-.82,1.76-1.63,2.65-2.43.42-.4.86-.77,1.32-1.16,1.05-.93,2.09-1.85,3.15-2.75s2.36-2,3.56-3c.58-.47,1.15-.94,1.73-1.43,1.33-1.09,2.65-2.14,4-3.18.94-.73,1.9-1.44,2.86-2.17l.56-.42c1.14-.85,2.3-1.68,3.46-2.52l1.85-1.17c.83-.59,1.67-1.16,2.51-1.72l1.33-.94,3.32-2.18c1.55-1,3.13-2,4.72-2.91l2-1.19c.44-.28.9-.55,1.34-.81l.23-.13,1.34-.77c1.49-.86,3-1.69,4.49-2.51l2.4-1.38,1.13-.59,1.12-.57.5-.26.3-.14a10.64,10.64,0,0,1,1-.49l.72-.35.51-.26c1.16-.57,2.32-1.13,3.49-1.68l2.92-1.34,2.38-1c1.42-.63,2.86-1.23,4.32-1.83s2.88-1.15,4.34-1.71l1.53-.57,1.54-.58.82-.3.85-.31.34-.11,3.79-1.3c1.42-.47,2.85-.94,4.28-1.37q2.56-.8,5.14-1.56h.19l2.17-.6,1.35-.35,1.45-.38,2.6-.64,2.63-.61c1.73-.39,3.48-.75,5.25-1.11l3.54-.66c.48-.1,1-.18,1.46-.26h.13l2.43-.41.88-.13,3-.44,1.06-.15h.33l2.64-.35,2.22-.24h.52l.75,0,.57,0,1.84-.18h.2c.89,0,1.79-.17,2.73-.23l.95,0,1.53-.05h.24l1.22-.05,1.37,0,3.07-.43,4.1-.15,1,0,2.24,0,1.65-.06c.6,0,1.2,0,1.8,0l2.53,0,2.52.09.51,0,1.89.09,2.82.16.29,0,2.82.21c1.85.14,3.69.3,5.49.5l2.45.27,2.46.3,2.14.27h.3c1.62.22,3.25.48,4.87.73s3.23.55,4.84.84c1.21.22,2.42.46,3.62.7s2.41.49,3.61.76l3.58.82,3.58.88,1.9.48H618l.29.07.43.12,3.12.85,1.17.33c1.51.44,3,.88,4.49,1.35l2.54.8,2.32.77,2.58.87,2.05.73,1.53.55c.81.29,1.61.59,2.42.9l2.39.92,2.13.83.23.11c1.78.71,3.53,1.43,5.28,2.2.64.28,1.28.54,1.9.83l2.24,1,2.24,1,2.07,1,.66.31,3.57,2,1.75.9,1.76.9.22.12.9.47,3.43,1.85c1.39.72,2.66,1.49,4,2.24l2.22,1.28,1.4.81,1.72,1,1.3.8,2.14,1.32,2.73,1.73c1.4.88,2.72,1.79,4.06,2.69l2,1.37,2,1.39c1,.73,2.08,1.48,3.11,2.22l.68.5,2.13,1.57c-37.54-12.56-52.17-2.48-55.78.92q2.65,5.12,5.28,10.6A402.36,402.36,0,0,1,680.64,241.19ZM447.27,130.65l-1.65,1.1,3.33-2.19Zm62.92-28,1.44-.39Zm109.65,1.11-1.13-.3,3.12.85ZM670,569.18a11.29,11.29,0,0,1-1.31-1c-.48.65-1,1.25-1.45,1.83-12.74,15-29.59,8.05-37.18,3.68-1.17-.68-2.12-1.29-2.8-1.77l-1.19-.86c-7.81,16.33-17.17,10.37-21.26,6.51a19.35,19.35,0,0,1-2.08-2.26,17.3,17.3,0,0,1-.85,1.73c-8.09,14.39-31.13,8.3-37.71,6.21-1.13-.37-1.77-.6-1.77-.6a15.54,15.54,0,0,1-.41,2.44c-3.45,13.28-23.68,9.48-23.68,9.48L584,652.18l1.85,2.34,1.36-.25,3.95-.72,2.72-.49,23.08-4.21,4.07-.72,18.56-3.43,1.36-.24,4.77-.86,2.72-.5,22.4-4.07,2.1-.38.59-.1,2.16-.4,2-.36L701,563.7c-13.94,14.72-27,8.16-31.06,5.48ZM605,767.83a12.67,12.67,0,0,0,.83,2.06,12.35,12.35,0,0,0,1.17,1.89,13.62,13.62,0,0,0,1.48,1.65,13.45,13.45,0,0,0,1.75,1.36,13.23,13.23,0,0,0,2,1,12.94,12.94,0,0,0,2.11.67,12.63,12.63,0,0,0,4.42.21l72.32-9.53a10.52,10.52,0,0,0,1.83-.41,11,11,0,0,0,1.73-.74,10.14,10.14,0,0,0,1.56-1,9.22,9.22,0,0,0,1.34-1.31,10.9,10.9,0,0,0,1.09-1.53,10.56,10.56,0,0,0,.78-1.71,9.52,9.52,0,0,0,.46-1.82,10.63,10.63,0,0,0,.13-1.87l-2.25-83.64c-65.64-7.55-116,17.16-116,17.16ZM494.88,540.6c-3.13-4.36-6.36-8.87-9.69-13.58-13-18.29-27.59-39.57-44.09-66.94-10.93-18.12-22.69-38.91-35.36-63.29a294.4,294.4,0,0,1-12.93-28.36A281.68,281.68,0,0,1,377.53,215.2c1.24-7,2.69-13.62,4.26-19.84l-.51.73-2.42,3.63-.35.52c-.45.71-.91,1.4-1.29,2.11l-1.17,1.86c-.71,3.29-1.38,6.69-2,10.17a286,286,0,0,0-3.6,73.1,285,285,0,0,0,18.92,81.93,300.81,300.81,0,0,0,13.21,29c12.43,23.9,24,44.36,34.71,62.23,16.78,27.92,31.61,49.55,44.76,68.11L492,542.69c3.92,5.48,7.65,10.64,11.21,15.74,2.28,2.14,4.52,4.32,6.73,6.51s4.56,4.53,6.82,6.83C510.13,561.88,502.89,551.79,494.88,540.6Zm89.18,99.59c-4.36-17.17-11.16-36-19.89-56.9-1.14-.37-1.78-.6-1.78-.6a15.54,15.54,0,0,1-.41,2.44,420.46,420.46,0,0,1,18.88,53.51c1.22,4.63,2.28,9.12,3.12,13.54q.28,1.3.51,2.58l1.36-.24,1.36-.25Q585.92,647.43,584.06,640.19Zm34.35,8.43c0-.11,0-.22,0-.33-.29-3.52-.66-7-1-10.42a361.37,361.37,0,0,0-12.57-60.2,19.35,19.35,0,0,1-2.08-2.26c-.25.58-.54,1.16-.85,1.72a357.84,357.84,0,0,1,12.75,61.12c.4,3.52.77,7.1,1.08,10.73l1.27-.05,1.36-.11A.56.56,0,0,0,618.41,648.62ZM750.09,242.7a287,287,0,0,0-31.48-84.62l-1.41-1.31c-.64-.58-1.28-1.14-1.92-1.67l-.86-.76-1.08-.9c-.77-.67-1.56-1.31-2.35-2l-.83-.68c.71,1.16,1.45,2.34,2.13,3.54A282.9,282.9,0,0,1,746.52,243a286.81,286.81,0,0,1,3.4,91.19c0,.45-.12.92-.17,1.37-3.87,32.1-8.32,59-12.91,82.43-5.05,25.6-10.28,46.81-15.18,65.45-1.52,5.8-3,11.36-4.45,16.72-5.37,20.09-10,37.25-13,54.43l3.91-11.33c.11-.33.22-.65.34-1q2.47-7,5.1-13.85c2.13-8.62,4.53-17.61,7.11-27.26,1.57-5.86,3.19-11.95,4.86-18.32,4.78-18.46,10-39.37,14.91-64.54,4.6-23.38,9-50.49,12.95-82.72a6.88,6.88,0,0,1,.1-.9,290.51,290.51,0,0,0-3.4-92ZM672,628.72c-2.26-17.3-2.75-37-2-59.54a12.1,12.1,0,0,1-1.3-1c-.48.65-1,1.25-1.45,1.83-.66,22.61-.14,42.45,2.23,59.87.4,3.12.89,6.18,1.42,9.16l2.11-.38.58-.1C672.94,635.39,672.43,632.09,672,628.72Zm-32.25,6a352.61,352.61,0,0,1-9.73-61c-1.17-.68-2.12-1.29-2.8-1.76a362,362,0,0,0,9.82,63.21c.79,3.2,1.64,6.41,2.56,9.66,0,0,0,.08,0,.12l1.28-.36,1.36-.37C641.37,641,640.54,637.85,639.76,634.74Zm33.18,3.94-.48,33.79c1,0,1.89,0,2.74.1l.48-34.37ZM648.41,643l-2.71.49,3.93,29.89,2.72-.23Zm-54.72,9.65-2.71.48,11.77,30,2.6-.83Zm27.3-4.8-2.72.47L625,677l2.71-.55Zm-30,5.28,2.72-.48M621,647.8l-2.72.47M648.41,643l-2.71.49m29.95-5.29-2.71.49"/></g></g></g></g><g class="cls-10"><g class="cls-4"><g class="cls-4"><g class="cls-4"><path class="cls-11" d="M698.22,683.83c-62.19-9.46-113.59,16-113.59,16l-2.85-9.52c57-26,116-17.16,116-17.16Z"/></g></g></g></g><g class="cls-12"><g class="cls-4"><g class="cls-4"><g class="cls-4"><path class="cls-13" d="M697.73,673.15l3.85,85.06a8.51,8.51,0,0,1-.07,1.43,8,8,0,0,1-.33,1.39,7.72,7.72,0,0,1-.59,1.31,7.26,7.26,0,0,1-.81,1.18,6.89,6.89,0,0,1-1,1,7.26,7.26,0,0,1-1.18.81,8.14,8.14,0,0,1-1.32.58,8.27,8.27,0,0,1-1.39.33l-64,8.87s46.5-14.83,53.57-33.12S697.73,673.15,697.73,673.15Z"/></g></g></g></g><path class="cls-2" d="M455.7,758c-11-14.21-30.15-19.36-48.09-20.86a177,177,0,0,0-67.69,7.56,54,54,0,0,0-63.38-39.55c7.12-24.16,2.44-52.44-13-72.81-23-30.34-64.84-42.95-102.35-36.4-26.79,4.68-51.32,18-72,35.88C65.68,608.94,32.72,595.51,0,596.1V862.66c131.15,5,268.78,5.44,388.85-1.39,29-1.65,55.52-18.32,68.46-44.41.43-.86.86-1.75,1.26-2.65C466.68,796.23,467.8,773.57,455.7,758Z"/><path class="cls-2" d="M377.06,90.05c-6.07-7.81-16.58-10.64-26.44-11.47a97.31,97.31,0,0,0-37.23,4.16A29.7,29.7,0,0,0,278.53,61a46.21,46.21,0,0,0-7.15-40C258.72,4.26,235.72-2.67,215.09.93,200.36,3.5,186.87,10.8,175.5,20.66,159.22,4.86,134.72-2.77,112.6,2.88,85,10,64,37,63.09,65.35c-14-8.29-31.12-11.61-46.47-6.54A43,43,0,0,0,0,69.16v56.06a91,91,0,0,0,8.21,7.7,41.58,41.58,0,0,0,23.86,9.61c96.13,6.82,212.36,9.8,308.23,4.35A44.74,44.74,0,0,0,378,122.45c.24-.47.47-1,.69-1.45C383.1,111.11,383.72,98.64,377.06,90.05Z"/></g></g></svg>